<?xml version="1.0" encoding="utf-8"?>
<svg class="benefits-svg anim-svg-1 w-75 h-75" viewBox="0 0 500 500" xmlns="http://www.w3.org/2000/svg">
  <g data-name="Layer 1" transform="matrix(0.5189290046691895, 0, 0, 0.5189290046691895, -94.28314349477199, 62.88772676717829)" style="">
    <g id="Layer_1-2" data-name="Layer 2">
      <g id="Layer_2-2" data-name="Layer 1-2">
        <path fill="#747484" d="M 381.662 231.878 L 522.562 231.878 C 525.432 231.958 527.712 234.298 527.722 237.168 L 527.722 400.728 C 527.722 404.428 524.722 407.428 521.022 407.428 L 381.662 407.428 L 381.662 231.878 Z"/>
        <path d="M 392.082 406.538 L 347.502 406.538 L 347.502 237.688 C 347.522 234.488 350.112 231.908 353.312 231.908 L 392.082 231.908" class="cls-34" style="fill: rgb(82, 82, 102);"/>
        <circle cx="420.522" cy="271.758" r="9.04" class="cls-31" style="fill: rgb(111, 249, 83);"/>
        <circle class="hosting-circ-1" cx="420.672" cy="271.598" r="9.04" class="cls-31" style="fill: rgb(111, 249, 83);"/>
        <path d="M 428.732 272.218 C 428.682 276.748 424.972 280.388 420.442 280.338 C 415.912 280.288 412.272 276.578 412.322 272.048 C 412.372 267.518 416.082 263.878 420.612 263.928 C 421.102 263.928 421.582 263.978 422.062 264.068 C 425.932 264.828 428.722 268.218 428.732 272.158 C 428.732 272.618 429.102 272.988 429.562 272.988 C 430.022 272.988 430.392 272.618 430.392 272.158 C 430.342 268.068 427.812 264.418 424.002 262.938 C 418.912 261.038 413.242 263.618 411.342 268.708 C 409.442 273.798 412.022 279.468 417.112 281.368 C 422.202 283.268 427.872 280.688 429.772 275.598 C 430.182 274.498 430.392 273.338 430.392 272.158 C 430.372 271.698 429.992 271.338 429.532 271.358 C 429.072 271.378 428.712 271.758 428.732 272.218 Z M 504.512 262.348 L 504.512 282.518 C 504.512 283.098 504.982 283.568 505.562 283.568 C 506.142 283.568 506.612 283.098 506.612 282.518 L 506.612 262.348 C 506.612 261.768 506.142 261.298 505.562 261.298 C 504.982 261.298 504.512 261.768 504.512 262.348 Z M 508.972 262.348 L 508.972 282.518 C 509.072 283.108 509.632 283.498 510.212 283.398 C 510.662 283.318 511.012 282.968 511.092 282.518 L 511.092 262.348 C 510.992 261.758 510.432 261.368 509.852 261.468 C 509.402 261.548 509.052 261.898 508.972 262.348 Z M 513.462 262.348 L 513.462 282.518 C 513.662 283.058 514.252 283.348 514.802 283.148 C 515.092 283.038 515.332 282.808 515.432 282.518 L 515.432 262.348 C 515.432 261.768 514.962 261.298 514.382 261.298 C 513.802 261.298 513.332 261.768 513.332 262.348 L 513.452 262.348 L 513.462 262.348 Z M 500.052 265.788 L 500.052 282.508 C 500.052 283.088 500.522 283.558 501.102 283.558 C 501.682 283.558 502.152 283.088 502.152 282.508 L 502.152 265.788 C 502.152 265.208 501.682 264.738 501.102 264.738 C 500.522 264.738 500.052 265.208 500.052 265.788 L 500.052 265.788 Z M 504.512 304.438 L 504.512 324.608 C 504.512 325.188 504.982 325.658 505.562 325.658 C 506.142 325.658 506.612 325.188 506.612 324.608 L 506.612 304.438 C 506.612 303.858 506.142 303.388 505.562 303.388 C 504.982 303.388 504.512 303.858 504.512 304.438 Z M 508.972 304.438 L 508.972 324.608 C 509.072 325.198 509.632 325.588 510.212 325.488 C 510.662 325.408 511.012 325.058 511.092 324.608 L 511.092 304.438 C 510.992 303.848 510.432 303.458 509.852 303.558 C 509.402 303.638 509.052 303.988 508.972 304.438 Z M 513.462 304.438 L 513.462 324.608 C 513.462 325.188 513.932 325.658 514.512 325.658 C 515.092 325.658 515.562 325.188 515.562 324.608 L 515.562 304.438 C 515.562 303.858 515.092 303.388 514.512 303.388 C 513.932 303.388 513.462 303.858 513.462 304.438 Z M 500.052 307.878 L 500.052 324.598 C 500.052 325.178 500.522 325.648 501.102 325.648 C 501.682 325.648 502.152 325.178 502.152 324.598 L 502.152 307.878 C 502.152 307.298 501.682 306.828 501.102 306.828 C 500.522 306.828 500.052 307.298 500.052 307.878 Z M 504.512 348.278 L 504.512 368.598 C 504.512 369.178 504.982 369.648 505.562 369.648 C 506.142 369.648 506.612 369.178 506.612 368.598 L 506.612 348.278 C 506.612 347.698 506.142 347.228 505.562 347.228 C 504.982 347.228 504.512 347.698 504.512 348.278 Z M 508.972 348.278 L 508.972 368.598 C 509.072 369.188 509.632 369.578 510.212 369.478 C 510.662 369.398 511.012 369.048 511.092 368.598 L 511.092 348.278 C 510.992 347.688 510.432 347.298 509.852 347.398 C 509.402 347.478 509.052 347.828 508.972 348.278 Z M 513.462 348.278 L 513.462 368.598 C 513.662 369.138 514.252 369.428 514.802 369.228 C 515.092 369.118 515.332 368.888 515.432 368.598 L 515.432 348.278 C 515.432 347.698 514.962 347.228 514.382 347.228 C 513.802 347.228 513.332 347.698 513.332 348.278 L 513.452 348.278 L 513.462 348.278 Z M 500.052 351.718 L 500.052 368.598 C 500.052 369.178 500.522 369.648 501.102 369.648 C 501.682 369.648 502.152 369.178 502.152 368.598 L 502.152 351.718 C 502.152 351.138 501.682 350.668 501.102 350.668 C 500.522 350.668 500.052 351.138 500.052 351.718 Z" class="cls-19" style="fill: rgb(51, 45, 40);"/>
        <path d="M 419.842 266.648 C 423.242 266.648 425.992 269.398 425.992 272.798 C 425.992 273.138 426.272 273.408 426.602 273.408 C 426.932 273.408 427.212 273.128 427.212 272.798 C 427.182 270.848 426.402 268.988 425.032 267.598 C 423.652 266.218 421.782 265.448 419.832 265.448 C 419.492 265.448 419.222 265.728 419.222 266.058 C 419.222 266.388 419.502 266.668 419.832 266.668 L 419.832 266.638 L 419.842 266.648 Z" class="cls-4" style="fill: rgb(255, 255, 255);"/>
        <circle class="hosting-circ-2" cx="420.672" cy="315.718" r="9.04" class="cls-31" style="fill: rgb(111, 249, 83);"/>
        <path d="M 419.842 309.968 C 423.242 309.968 425.992 312.718 425.992 316.118 C 425.992 316.458 426.272 316.728 426.602 316.728 C 426.932 316.728 427.212 316.448 427.212 316.118 C 427.192 312.048 423.902 308.758 419.832 308.738 C 419.492 308.738 419.222 309.018 419.222 309.348 C 419.222 309.678 419.502 309.958 419.832 309.958 L 419.842 309.968 Z" class="cls-4" style="fill: rgb(255, 255, 255);"/>
        <path d="M 526.182 307.968 L 526.182 355.588 C 526.352 356.438 526.312 307.348 526.182 307.968 Z M 391.902 253.128 L 423.202 253.128 C 424.052 252.958 424.602 252.128 424.432 251.278 C 424.312 250.658 423.822 250.178 423.202 250.048 L 391.902 250.048 C 391.052 250.218 390.502 251.048 390.672 251.898 C 390.792 252.518 391.282 252.998 391.902 253.128 Z M 428.732 315.538 C 428.722 320.068 425.032 323.738 420.502 323.728 C 415.972 323.718 412.302 320.028 412.312 315.498 C 412.322 310.968 416.012 307.298 420.542 307.308 C 421.052 307.308 421.562 307.358 422.052 307.458 C 425.922 308.218 428.712 311.608 428.722 315.548 C 428.722 316.008 429.092 316.378 429.552 316.378 C 430.012 316.378 430.382 316.008 430.382 315.548 C 430.322 311.458 427.792 307.808 423.992 306.328 C 418.902 304.428 413.232 307.008 411.332 312.098 C 409.432 317.188 412.012 322.858 417.102 324.758 C 422.192 326.658 427.862 324.078 429.762 318.988 C 430.172 317.888 430.382 316.728 430.382 315.548 C 430.382 315.088 430.012 314.718 429.552 314.718 C 429.092 314.718 428.722 315.088 428.722 315.548 L 428.732 315.538 Z" class="cls-19" style="fill: rgb(51, 45, 40);"/>
        <circle class="hosting-circ-3" cx="420.212" cy="358.018" r="9.04" class="cls-31" style="fill: rgb(111, 249, 83);"/>
        <path d="M 419.382 352.268 C 422.782 352.268 425.532 355.018 425.532 358.418 C 425.452 358.748 425.662 359.078 425.992 359.158 C 426.322 359.238 426.652 359.028 426.732 358.698 C 426.752 358.608 426.752 358.518 426.732 358.428 C 426.732 356.478 425.962 354.608 424.582 353.228 C 423.202 351.858 421.332 351.088 419.382 351.078 C 419.042 351.078 418.772 351.358 418.772 351.688 C 418.772 352.018 419.052 352.298 419.382 352.298 L 419.382 352.268 L 419.382 352.268 Z" class="cls-4" style="fill: rgb(255, 255, 255);"/>
        <path d="M 428.732 357.958 C 428.722 362.488 425.032 366.158 420.502 366.148 C 415.972 366.138 412.302 362.448 412.312 357.918 C 412.322 353.388 416.012 349.718 420.542 349.728 C 421.052 349.728 421.562 349.778 422.052 349.878 C 425.922 350.638 428.712 354.028 428.722 357.968 C 428.722 358.428 429.092 358.798 429.552 358.798 C 430.012 358.798 430.382 358.428 430.382 357.968 C 430.322 353.878 427.792 350.228 423.992 348.748 C 418.902 346.848 413.232 349.428 411.332 354.518 C 409.432 359.608 412.012 365.278 417.102 367.178 C 422.192 369.078 427.862 366.498 429.762 361.408 C 430.172 360.308 430.382 359.148 430.382 357.968 C 430.382 357.508 430.012 357.138 429.552 357.138 C 429.092 357.138 428.722 357.508 428.722 357.968 L 428.732 357.958 Z M 391.902 338.188 L 526.462 338.188 C 527.312 338.018 527.862 337.188 527.692 336.338 C 527.572 335.718 527.082 335.238 526.462 335.108 L 391.902 335.108 C 391.052 335.278 390.502 336.108 390.672 336.958 C 390.792 337.578 391.282 338.058 391.902 338.188 Z M 391.902 295.648 L 480.132 295.648 C 480.982 295.478 481.532 294.648 481.362 293.798 C 481.242 293.178 480.752 292.698 480.132 292.568 L 391.902 292.568 C 391.052 292.738 390.502 293.568 390.672 294.418 C 390.792 295.038 391.282 295.518 391.902 295.648 Z M 432.052 253.128 L 438.706 253.128 L 526.682 253.128 C 527.532 252.958 528.082 252.128 527.912 251.278 C 527.792 250.658 527.302 250.178 526.682 250.048 L 432.052 250.048 C 431.202 250.218 430.652 251.048 430.822 251.898 C 430.942 252.518 431.432 252.998 432.052 253.128 Z" class="cls-19" style="fill: rgb(51, 45, 40);"/>
        <circle cx="443.302" cy="358.878" r="4.86" class="cls-7" style="fill: rgb(247, 84, 84);"/>
        <circle cx="461.352" cy="358.878" r="4.86" class="cls-7" style="fill: rgb(247, 84, 84);"/>
        <circle cx="479.392" cy="358.878" r="4.86" class="cls-7" style="fill: rgb(247, 84, 84);"/>
        <circle cx="443.302" cy="315.438" r="4.86" class="cls-34" style="fill: rgb(82, 82, 102);"/>
        <circle cx="461.352" cy="315.438" r="4.86" class="cls-34" style="fill: rgb(82, 82, 102);"/>
        <circle cx="479.392" cy="315.438" r="4.86" class="cls-34" style="fill: rgb(82, 82, 102);"/>
        <path d="M 446.532 312.978 C 447.532 314.258 447.692 315.998 446.932 317.438 C 446.272 318.668 445.032 319.468 443.642 319.558 C 441.382 319.668 439.472 317.918 439.362 315.668 C 439.332 315.068 439.442 314.458 439.672 313.908 C 440.332 312.438 441.782 311.498 443.392 311.478 C 443.842 311.388 444.132 310.958 444.052 310.508 C 443.992 310.178 443.732 309.918 443.392 309.848 C 440.252 309.848 437.712 312.398 437.712 315.548 C 437.712 316.478 437.942 317.398 438.382 318.218 C 440.082 320.858 443.592 321.618 446.232 319.928 C 448.872 318.238 449.632 314.718 447.942 312.078 C 447.732 311.688 447.242 311.548 446.862 311.758 C 446.862 311.758 446.842 311.758 446.842 311.768 C 446.472 312.008 446.342 312.478 446.532 312.878 L 446.532 312.998 L 446.532 312.978 Z M 457.382 315.538 C 457.362 313.298 459.162 311.468 461.402 311.438 C 463.642 311.408 465.472 313.218 465.502 315.458 C 465.502 316.208 465.302 316.948 464.922 317.588 C 464.192 318.808 462.872 319.558 461.452 319.558 C 460.992 319.558 460.622 319.928 460.622 320.388 C 460.622 320.848 460.992 321.218 461.452 321.218 C 464.592 321.218 467.142 318.668 467.142 315.528 C 467.142 312.388 464.592 309.838 461.452 309.838 C 458.312 309.838 455.762 312.388 455.762 315.528 C 455.852 315.978 456.282 316.268 456.732 316.188 C 457.062 316.128 457.322 315.868 457.392 315.528 L 457.382 315.538 Z M 476.132 313.258 C 477.452 311.448 479.992 311.058 481.802 312.378 C 483.612 313.698 484.002 316.238 482.682 318.048 C 481.362 319.858 478.822 320.248 477.012 318.928 C 476.672 318.678 476.382 318.388 476.132 318.048 C 475.962 317.618 475.482 317.408 475.052 317.578 C 474.622 317.748 474.412 318.228 474.582 318.658 C 474.612 318.738 474.662 318.818 474.712 318.878 C 476.552 321.408 480.082 321.968 482.612 320.128 C 485.142 318.288 485.702 314.758 483.862 312.228 C 482.022 309.698 478.492 309.138 475.962 310.978 C 475.412 311.378 474.932 311.878 474.552 312.458 C 473.972 313.318 475.382 314.118 475.962 313.258 L 476.112 313.258 L 476.132 313.258 Z" class="cls-19" style="fill: rgb(51, 45, 40);"/>
        <circle cx="457.812" cy="318.948" r="1.23" class="cls-19" style="fill: rgb(51, 45, 40);"/>
        <circle cx="443.302" cy="273.018" r="4.86" class="cls-7" style="fill: rgb(247, 84, 84);"/>
        <circle cx="461.352" cy="273.018" r="4.86" class="cls-7" style="fill: rgb(247, 84, 84);"/>
        <circle cx="479.392" cy="273.018" r="4.86" class="cls-7" style="fill: rgb(247, 84, 84);"/>
        <path d="M 446.532 270.588 C 447.942 272.328 447.672 274.888 445.922 276.298 C 444.182 277.708 441.622 277.438 440.212 275.688 C 438.802 273.948 439.072 271.388 440.822 269.978 C 441.562 269.378 442.502 269.058 443.452 269.078 C 444.502 269.078 444.502 267.418 443.452 267.448 C 440.332 267.438 437.782 269.958 437.772 273.078 C 437.772 274.018 438.002 274.948 438.442 275.778 C 439.332 277.528 441.072 278.688 443.022 278.848 C 444.992 278.948 446.872 277.998 447.972 276.358 C 449.412 274.368 449.412 271.678 447.972 269.688 C 447.682 269.338 447.162 269.278 446.802 269.578 C 446.522 269.808 446.422 270.188 446.552 270.518 L 446.522 270.578 L 446.532 270.588 Z M 457.382 273.108 C 457.382 270.868 459.192 269.048 461.432 269.038 C 463.672 269.028 465.492 270.848 465.502 273.088 C 465.502 273.828 465.302 274.558 464.922 275.188 C 464.182 276.398 462.872 277.138 461.452 277.158 C 461.002 277.248 460.712 277.678 460.792 278.128 C 460.852 278.458 461.112 278.718 461.452 278.788 C 464.592 278.788 467.142 276.238 467.142 273.098 C 467.142 269.958 464.592 267.408 461.452 267.408 C 458.312 267.408 455.762 269.958 455.762 273.098 C 455.852 273.548 456.282 273.838 456.732 273.758 C 457.062 273.698 457.322 273.438 457.392 273.098 L 457.382 273.108 Z M 476.132 270.838 C 477.452 269.028 479.982 268.618 481.802 269.938 C 483.612 271.258 484.022 273.788 482.702 275.608 C 481.382 277.418 478.852 277.828 477.032 276.508 C 476.682 276.258 476.382 275.948 476.132 275.608 C 475.892 275.238 475.412 275.118 475.022 275.328 C 474.632 275.538 474.492 276.028 474.702 276.408 C 474.702 276.408 474.702 276.428 474.712 276.428 C 476.552 278.958 480.082 279.518 482.612 277.678 C 485.142 275.838 485.702 272.308 483.862 269.778 C 482.022 267.248 478.492 266.688 475.962 268.528 C 475.412 268.928 474.932 269.428 474.552 270.008 C 473.972 270.868 475.382 271.698 475.962 270.838 L 476.112 270.838 L 476.132 270.838 Z" class="cls-19" style="fill: rgb(51, 45, 40);"/>
        <circle cx="457.812" cy="276.548" r="1.23" class="cls-19" style="fill: rgb(51, 45, 40);"/>
        <path d="M 447.422 357.958 C 447.402 360.178 445.592 361.968 443.362 361.958 C 441.142 361.938 439.352 360.128 439.362 357.898 C 439.382 355.678 441.192 353.888 443.422 353.898 C 443.652 353.898 443.872 353.918 444.102 353.958 C 446.022 354.328 447.412 355.998 447.422 357.958 C 447.422 359.008 449.082 359.008 449.052 357.958 C 449.042 355.578 447.562 353.448 445.332 352.608 C 442.382 351.518 439.112 353.028 438.032 355.978 C 436.942 358.928 438.452 362.198 441.402 363.278 C 444.352 364.368 447.622 362.858 448.702 359.908 C 448.932 359.278 449.052 358.618 449.052 357.958 C 448.962 357.508 448.532 357.218 448.082 357.298 C 447.752 357.358 447.492 357.618 447.422 357.958 L 447.422 357.958 Z M 465.472 357.958 C 465.452 360.178 463.642 361.968 461.412 361.958 C 459.192 361.938 457.402 360.128 457.412 357.898 C 457.432 355.678 459.242 353.888 461.472 353.898 C 461.702 353.898 461.922 353.918 462.152 353.958 C 464.082 354.318 465.472 355.998 465.472 357.958 C 465.472 359.008 467.132 359.008 467.102 357.958 C 467.102 354.838 464.562 352.308 461.432 352.308 C 458.312 352.308 455.782 354.848 455.782 357.978 C 455.782 361.098 458.322 363.628 461.452 363.628 C 461.812 363.628 462.162 363.588 462.512 363.528 C 465.152 362.978 467.062 360.668 467.092 357.968 C 467.002 357.518 466.572 357.228 466.122 357.308 C 465.792 357.368 465.532 357.628 465.462 357.968 L 465.472 357.958 Z M 483.512 357.958 C 483.512 359.638 482.472 361.138 480.902 361.738 C 479.262 362.328 477.432 361.828 476.322 360.478 C 474.902 358.748 475.152 356.188 476.882 354.768 C 478.612 353.348 481.172 353.598 482.592 355.328 C 483.202 356.068 483.522 356.998 483.512 357.958 C 483.512 358.418 483.882 358.788 484.342 358.788 C 484.802 358.788 485.172 358.418 485.172 357.958 C 485.162 355.618 483.762 353.518 481.602 352.608 C 478.652 351.518 475.382 353.028 474.302 355.978 C 473.212 358.928 474.722 362.198 477.672 363.278 C 480.622 364.368 483.892 362.858 484.972 359.908 C 485.202 359.278 485.322 358.618 485.322 357.958 C 485.322 357.458 484.912 357.048 484.412 357.048 C 483.912 357.048 483.502 357.458 483.502 357.958 L 483.512 357.958 Z M 379.722 246.858 L 379.502 246.858 C 379.362 246.728 379.362 246.518 379.492 246.378 L 379.502 246.368 L 384.942 238.588 C 385.072 238.448 385.282 238.448 385.422 238.578 L 385.432 238.588 C 385.572 238.718 385.572 238.928 385.442 239.068 L 385.432 239.078 L 380.142 246.698 C 380.052 246.838 379.872 246.908 379.712 246.848 L 379.722 246.858 Z M 382.582 246.268 C 382.522 246.298 382.452 246.298 382.402 246.268 C 382.262 246.138 382.262 245.928 382.392 245.788 L 382.402 245.778 L 385.292 241.748 C 385.402 241.618 385.602 241.608 385.722 241.718 L 385.752 241.748 C 385.882 241.858 385.892 242.058 385.782 242.178 L 385.752 242.208 L 382.862 246.268 C 382.772 246.308 382.672 246.308 382.582 246.268 Z M 391.902 384.888 L 449.792 384.888 C 450.642 384.718 451.192 383.888 451.022 383.038 C 450.902 382.418 450.412 381.938 449.792 381.808 L 391.902 381.808 C 391.052 381.978 390.502 382.808 390.672 383.658 C 390.792 384.278 391.282 384.758 391.902 384.888 Z M 469.312 384.888 L 527.292 384.888 C 528.142 384.718 528.692 383.888 528.522 383.038 C 528.402 382.418 527.912 381.938 527.292 381.808 L 469.312 381.808 C 468.462 381.978 467.912 382.808 468.082 383.658 C 468.202 384.278 468.692 384.758 469.312 384.888 Z" class="cls-19" style="fill: rgb(51, 45, 40);"/>
        <path d="M 810.592 402.818 L 810.592 379.108 L 925.322 379.108 L 925.322 402.818 L 913.182 402.818" class="cls-30" style="fill: rgb(66, 157, 193);"/>
        <path d="M 844.222 349.418 L 898.452 349.418 L 898.452 379.578 L 844.222 379.578 L 844.222 349.418 Z" class="cls-30" style="fill: rgb(66, 157, 193);"/>
        <path d="M 898.452 378.008 L 844.372 378.008 L 845.912 379.578 L 845.912 349.418 L 844.372 350.988 L 898.602 350.988 L 897.032 349.418 L 897.032 379.578 C 897.202 380.428 898.032 380.978 898.882 380.808 C 899.502 380.688 899.982 380.198 900.112 379.578 L 900.112 349.418 C 900.082 348.568 899.392 347.878 898.542 347.848 L 844.372 347.848 C 843.512 347.868 842.822 348.558 842.802 349.418 L 842.802 379.578 C 842.822 380.428 843.512 381.118 844.372 381.118 L 898.602 381.118 C 899.452 380.958 900.022 380.148 899.862 379.298 C 899.732 378.598 899.152 378.078 898.452 378.018 L 898.452 378.008 Z" class="cls-19" style="fill: rgb(51, 45, 40);"/>
        <path d="M 929.232 348.398 L 715.042 348.398 C 711.642 348.398 708.892 345.648 708.892 342.248 L 708.892 158.098 C 708.892 154.698 711.642 151.948 715.042 151.948 L 1021.802 151.948 C 1025.202 151.948 1027.952 154.698 1027.952 158.098 L 1027.952 342.308 C 1027.952 345.708 1025.202 348.458 1021.802 348.458 L 978.972 348.458" class="cls-30" style="fill: rgb(66, 157, 193);"/>
        <path d="M 1000.952 153.578 L 1014.382 153.578 C 1018.592 153.578 1025.822 152.198 1026.432 158.128 C 1026.772 161.508 1026.432 165.108 1026.432 168.518 L 1026.432 340.678 C 1026.432 343.748 1025.512 346.548 1021.632 346.828 C 1017.762 347.108 1013.362 346.828 1009.332 346.828 L 978.992 346.828 C 978.142 346.998 977.592 347.828 977.762 348.678 C 977.882 349.298 978.372 349.778 978.992 349.908 L 1006.812 349.908 C 1013.852 349.908 1028.912 352.768 1029.562 342.248 C 1030.302 330.348 1029.562 318.178 1029.562 306.278 L 1029.562 170.268 C 1029.562 166.268 1029.742 162.248 1029.562 158.248 C 1029.542 153.848 1025.972 150.298 1021.572 150.318 L 1021.482 150.318 C 1016.192 150.138 1010.872 150.318 1005.592 150.318 L 1000.952 150.318 C 1000.102 150.488 999.552 151.318 999.722 152.168 C 999.842 152.788 1000.332 153.268 1000.952 153.398 L 1000.952 153.578 L 1000.952 153.578 Z M 715.042 346.368 C 714.752 346.398 714.472 346.398 714.182 346.368 L 714.702 346.368 C 714.152 346.278 713.612 346.118 713.102 345.908 L 713.592 346.128 C 713.122 345.928 712.682 345.668 712.272 345.358 L 712.672 345.668 C 712.252 345.338 711.862 344.958 711.532 344.528 L 711.842 344.928 C 711.532 344.518 711.272 344.078 711.072 343.608 L 711.292 344.098 C 711.092 343.618 710.942 343.108 710.862 342.588 L 710.862 342.278 C 710.722 341.168 709.712 340.378 708.602 340.518 C 707.682 340.628 706.952 341.358 706.842 342.278 C 706.862 344.428 707.722 346.478 709.242 347.998 C 710.792 349.518 712.882 350.378 715.052 350.398 C 716.172 350.398 717.082 349.488 717.082 348.368 C 717.082 347.248 716.172 346.338 715.052 346.338 L 715.052 346.368 L 715.042 346.368 Z" class="cls-19" style="fill: rgb(51, 45, 40);"/>
        <path fill="#626363" d="M 832.512 349.418 L 886.742 349.418 L 886.742 379.578 L 832.512 379.578 L 832.512 349.418 Z"/>
        <path d="M 832.512 349.418 L 886.742 349.418 L 886.742 379.578 L 832.512 379.578 L 832.512 349.418 Z" class="cls-27" style="fill: rgb(224, 243, 252);"/>
        <path d="M 836.782 356.058 L 875.122 356.308 L 880.652 356.308 C 883.202 356.308 885.262 354.248 885.262 351.698 C 885.262 349.148 883.202 347.088 880.652 347.088 L 836.722 347.088 C 834.172 347.088 832.112 349.148 832.112 351.698 C 832.112 354.248 834.172 356.308 836.722 356.308 L 836.782 356.058 Z" class="cls-21" style="fill: rgb(139, 210, 252);"/>
        <path d="M 1010.732 348.398 L 707.262 348.398 C 702.432 348.378 698.522 344.468 698.502 339.638 L 698.502 159.938 C 698.502 155.198 702.342 151.358 707.082 151.358 L 1010.732 151.358 C 1014.532 151.338 1017.632 154.408 1017.652 158.218 L 1017.652 341.508 C 1017.632 345.318 1014.542 348.398 1010.732 348.398 L 1010.732 348.398 Z" class="cls-27" style="fill: rgb(224, 243, 252);"/>
        <rect width="290.95" height="169.95" x="712.612" y="164.928" fill="#c0ecff" rx="6.12" ry="6.12"/>
        <path d="M 1002.672 170.148 L 1002.672 178.848 C 1002.672 175.448 999.922 172.698 996.522 172.698 L 717.842 172.698 C 714.442 172.698 711.692 175.448 711.692 178.848 L 711.692 170.148 C 711.692 166.748 714.442 163.998 717.842 163.998 L 996.592 163.998 C 999.962 164.028 1002.682 166.778 1002.682 170.148 L 1002.672 170.148 Z" class="cls-21" style="fill: rgb(139, 210, 252);"/>
        <path d="M 834.052 359.008 L 834.052 349.418 L 832.512 350.988 L 886.742 350.988 L 885.172 349.418 L 885.172 379.578 L 886.742 378.008 L 832.512 378.008 L 834.052 379.578 L 834.052 366.698 C 833.882 365.848 833.052 365.298 832.202 365.468 C 831.582 365.588 831.102 366.078 830.972 366.698 L 830.972 379.578 C 830.992 380.428 831.682 381.118 832.542 381.118 L 886.772 381.118 C 887.612 381.098 888.292 380.418 888.312 379.578 L 888.312 349.418 C 888.292 348.568 887.622 347.878 886.772 347.848 L 832.512 347.848 C 831.652 347.868 830.962 348.558 830.942 349.418 L 830.942 359.008 C 831.112 359.858 831.942 360.408 832.792 360.238 C 833.412 360.118 833.892 359.628 834.022 359.008 L 834.052 359.008 Z" class="cls-19" style="fill: rgb(51, 45, 40);"/>
        <path d="M 797.622 379.108 L 912.352 379.108 L 912.352 402.778 L 797.622 402.778 L 797.622 379.108 Z" class="cls-27" style="fill: rgb(224, 243, 252);"/>
        <path d="M 841.922 335.488 L 819.142 335.488 L 860.892 166.148 L 883.702 166.148 L 841.922 335.488 Z M 866.362 335.488 L 856.092 335.488 L 897.842 166.148 L 908.112 166.148 L 866.362 335.488 Z" class="cls-5" style="fill: rgb(255, 255, 255); isolation: isolate; opacity: 0.65;"/>
        <path d="M 796.202 153.578 L 1011.432 153.578 C 1014.812 153.828 1015.952 156.288 1016.072 159.138 C 1016.592 171.158 1016.072 183.298 1016.072 195.318 L 1016.072 337.148 C 1016.072 341.148 1016.962 346.368 1011.242 346.828 C 1003.952 347.348 996.482 346.828 989.172 346.828 L 953.232 346.828 C 952.382 346.998 951.832 347.828 952.002 348.678 C 952.122 349.298 952.612 349.778 953.232 349.908 L 1005.312 349.908 C 1011.242 349.908 1018.842 350.248 1019.182 342.098 L 1019.182 163.538 C 1019.182 159.848 1019.832 155.518 1016.942 152.688 C 1014.052 149.858 1010.392 150.318 1006.762 150.318 L 796.202 150.318 C 795.352 150.488 794.802 151.318 794.972 152.168 C 795.092 152.788 795.582 153.268 796.202 153.398 L 796.202 153.578 L 796.202 153.578 Z M 943.492 346.828 L 707.902 346.828 C 704.152 346.828 700.372 346.828 700.062 341.728 C 699.262 328.538 700.062 315.078 700.062 301.758 L 700.062 170.888 C 700.062 166.798 699.752 162.588 700.062 158.588 C 700.552 151.828 710.172 153.668 714.942 153.668 L 783.622 153.668 C 784.472 153.498 785.022 152.668 784.852 151.818 C 784.732 151.198 784.242 150.718 783.622 150.588 L 728.282 150.588 C 720.592 150.588 712.912 150.308 705.162 150.588 C 698.642 150.838 697.072 155.848 697.072 161.198 L 697.072 337.148 C 697.072 342.308 696.702 348.558 703.222 349.818 C 705.952 350.068 708.702 350.068 711.432 349.818 L 943.452 349.818 C 944.302 349.648 944.852 348.818 944.682 347.968 C 944.562 347.348 944.072 346.868 943.452 346.738 L 943.482 346.828 L 943.492 346.828 Z" class="cls-19" style="fill: rgb(51, 45, 40);"/>
        <path d="M 721.932 190.658 L 721.932 213.128 C 721.752 215.038 723.152 216.728 725.062 216.918 C 726.972 217.108 728.662 215.698 728.852 213.788 C 728.872 213.568 728.872 213.348 728.852 213.138 L 728.852 190.668 C 728.832 188.778 727.302 187.238 725.412 187.228 C 723.512 187.258 721.972 188.798 721.942 190.698 L 721.942 190.668 L 721.932 190.658 Z" class="cls-4" style="fill: rgb(255, 255, 255);"/>
        <circle cx="725.462" cy="225.488" r="4.77" class="cls-4" style="fill: rgb(255, 255, 255);"/>
        <path d="M 702.252 170.978 L 702.252 193.358 C 701.942 195.248 703.222 197.038 705.112 197.348 C 707.002 197.658 708.792 196.378 709.102 194.488 C 709.162 194.118 709.162 193.738 709.102 193.358 L 709.102 170.978 C 709.102 169.068 707.562 167.518 705.662 167.508 C 703.762 167.538 702.222 169.078 702.192 170.978 L 702.252 170.978 Z" class="cls-4" style="fill: rgb(255, 255, 255);"/>
        <circle cx="705.792" cy="205.808" r="4.77" class="cls-4" style="fill: rgb(255, 255, 255);"/>
        <circle cx="394.172" cy="413.638" r="3.72" class="cls-2" style="fill: rgb(0, 2, 1);"/>
        <path d="M 841.982 199.228 L 897.502 199.228 L 897.502 241.258 L 841.982 241.258 L 841.982 199.228 Z" class="cls-21" style="fill: rgb(139, 210, 252);"/>
        <path d="M 836.912 199.228 L 892.432 199.228 L 892.432 241.258 L 836.912 241.258 L 836.912 199.228 Z" class="cls-4" style="fill: rgb(255, 255, 255);"/>
        <path d="M 848.742 216.668 C 845.532 216.688 842.922 214.098 842.902 210.888 C 842.882 207.678 845.472 205.068 848.682 205.048 C 851.892 205.028 854.502 207.618 854.522 210.828 L 854.522 210.858 C 854.522 214.058 851.942 216.648 848.742 216.668 Z M 848.742 206.858 C 846.532 206.858 844.742 208.648 844.742 210.858 C 844.742 213.068 846.532 214.858 848.742 214.858 C 850.952 214.858 852.742 213.068 852.742 210.858 C 852.742 208.648 850.952 206.858 848.742 206.858 Z M 881.642 223.088 L 844.382 223.088 C 844.072 223.108 843.812 222.868 843.802 222.568 L 843.802 222.508 C 843.802 222.188 844.062 221.928 844.382 221.928 L 881.672 221.928 C 881.992 221.928 882.252 222.188 882.252 222.508 C 882.272 222.818 882.042 223.078 881.732 223.098 L 881.632 223.098 L 881.642 223.088 Z M 864.942 227.178 L 844.372 227.178 C 844.052 227.178 843.792 226.918 843.792 226.598 C 843.772 226.278 844.022 225.998 844.342 225.988 L 864.972 225.988 C 865.302 226.008 865.552 226.278 865.552 226.598 C 865.532 226.928 865.262 227.178 864.942 227.178 Z" class="cls-29" style="fill: rgb(35, 33, 68);"/>
        <path d="M 841.982 263.858 L 897.502 263.858 L 897.502 305.888 L 841.982 305.888 L 841.982 263.858 Z" class="cls-21" style="fill: rgb(139, 210, 252);"/>
        <path d="M 836.912 263.858 L 892.432 263.858 L 892.432 305.888 L 836.912 305.888 L 836.912 263.858 Z" class="cls-4" style="fill: rgb(255, 255, 255);"/>
        <path d="M 848.742 281.288 C 845.532 281.308 842.922 278.718 842.902 275.508 C 842.882 272.298 845.472 269.688 848.682 269.668 C 851.892 269.648 854.502 272.238 854.522 275.448 L 854.522 275.478 C 854.522 278.678 851.942 281.268 848.742 281.288 Z M 848.742 271.478 C 846.532 271.478 844.742 273.268 844.742 275.478 C 844.742 277.688 846.532 279.478 848.742 279.478 C 850.952 279.478 852.742 277.688 852.742 275.478 C 852.742 273.268 850.952 271.478 848.742 271.478 Z M 881.642 287.708 L 844.382 287.708 C 844.072 287.728 843.812 287.488 843.802 287.188 L 843.802 287.128 C 843.802 286.808 844.062 286.548 844.382 286.548 L 881.672 286.548 C 881.992 286.548 882.252 286.808 882.252 287.128 C 882.272 287.438 882.042 287.698 881.732 287.718 L 881.632 287.718 L 881.642 287.708 Z M 864.942 291.928 L 844.372 291.928 C 844.052 291.928 843.792 291.668 843.792 291.348 L 843.792 291.318 C 843.792 290.998 844.052 290.738 844.372 290.738 L 864.972 290.738 C 865.292 290.758 865.542 291.008 865.552 291.318 C 865.552 291.658 865.272 291.928 864.942 291.928 Z" class="cls-29" style="fill: rgb(35, 33, 68);"/>
        <path d="M 923.292 263.858 L 978.812 263.858 L 978.812 305.888 L 923.292 305.888 L 923.292 263.858 Z" class="cls-21" style="fill: rgb(139, 210, 252);"/>
        <path d="M 918.222 263.858 L 973.742 263.858 L 973.742 305.888 L 918.222 305.888 L 918.222 263.858 Z" class="cls-4" style="fill: rgb(255, 255, 255);"/>
        <path d="M 930.032 281.288 C 926.822 281.288 924.222 278.688 924.222 275.478 C 924.222 272.268 926.822 269.668 930.032 269.668 C 933.242 269.668 935.842 272.268 935.842 275.478 C 935.842 278.688 933.242 281.288 930.032 281.288 Z M 930.032 271.478 C 927.822 271.478 926.032 273.268 926.032 275.478 C 926.032 277.688 927.822 279.478 930.032 279.478 C 932.242 279.478 934.032 277.688 934.032 275.478 C 934.012 273.278 932.232 271.498 930.032 271.478 Z M 962.952 287.708 L 925.662 287.708 C 925.342 287.728 925.062 287.478 925.052 287.158 L 925.052 287.128 C 925.072 286.798 925.342 286.548 925.662 286.548 L 962.952 286.548 C 963.272 286.568 963.522 286.818 963.532 287.128 C 963.532 287.448 963.272 287.708 962.952 287.708 Z M 946.232 291.928 L 925.662 291.928 C 925.342 291.928 925.082 291.668 925.082 291.348 L 925.082 291.318 C 925.082 290.998 925.342 290.738 925.662 290.738 L 946.232 290.738 C 946.562 290.658 946.892 290.868 946.972 291.198 C 947.052 291.528 946.842 291.858 946.512 291.938 C 946.422 291.958 946.332 291.958 946.242 291.938 L 946.232 291.928 Z" class="cls-29" style="fill: rgb(35, 33, 68);"/>
        <path d="M 923.292 199.228 L 978.812 199.228 L 978.812 241.258 L 923.292 241.258 L 923.292 199.228 Z" class="cls-21" style="fill: rgb(139, 210, 252);"/>
        <path d="M 918.222 199.228 L 973.742 199.228 L 973.742 241.258 L 918.222 241.258 L 918.222 199.228 Z" class="cls-4" style="fill: rgb(255, 255, 255);"/>
        <path d="M 930.032 216.668 C 926.822 216.668 924.222 214.068 924.222 210.858 C 924.222 207.648 926.822 205.048 930.032 205.048 C 933.242 205.048 935.842 207.648 935.842 210.858 C 935.842 214.068 933.242 216.668 930.032 216.668 Z M 930.032 206.858 C 927.822 206.858 926.032 208.648 926.032 210.858 C 926.032 213.068 927.822 214.858 930.032 214.858 C 932.242 214.858 934.032 213.068 934.032 210.858 C 934.012 208.658 932.232 206.878 930.032 206.858 Z M 962.952 223.088 L 925.662 223.088 C 925.342 223.108 925.062 222.858 925.052 222.538 L 925.052 222.508 C 925.072 222.178 925.342 221.928 925.662 221.928 L 962.952 221.928 C 963.272 221.948 963.522 222.198 963.532 222.508 C 963.532 222.828 963.272 223.088 962.952 223.088 Z M 946.232 227.178 L 925.662 227.178 C 925.342 227.178 925.082 226.918 925.082 226.598 C 925.062 226.278 925.312 225.998 925.632 225.988 L 946.232 225.988 C 946.562 225.908 946.892 226.118 946.972 226.448 C 947.052 226.778 946.842 227.108 946.512 227.188 C 946.422 227.208 946.332 227.208 946.242 227.188 L 946.232 227.178 Z" class="cls-29" style="fill: rgb(35, 33, 68);"/>
        <path d="M 760.662 199.228 L 816.182 199.228 L 816.182 241.258 L 760.662 241.258 L 760.662 199.228 Z" class="cls-21" style="fill: rgb(139, 210, 252);"/>
        <path d="M 755.622 199.228 L 811.142 199.228 L 811.142 241.258 L 755.622 241.258 L 755.622 199.228 Z" class="cls-4" style="fill: rgb(255, 255, 255);"/>
        <path d="M 813.112 241.968 L 808.742 241.968 C 808.252 241.968 807.852 241.568 807.852 241.078 C 807.852 240.588 808.252 240.188 808.742 240.188 L 813.112 240.188 C 814.412 240.168 815.462 239.118 815.482 237.818 L 815.482 201.818 C 815.482 200.508 814.422 199.448 813.112 199.448 L 808.742 199.448 C 808.252 199.448 807.852 199.048 807.852 198.558 C 807.852 198.068 808.252 197.668 808.742 197.668 L 813.112 197.668 C 815.392 197.648 817.242 199.478 817.262 201.758 L 817.262 237.818 C 817.282 240.098 815.452 241.948 813.172 241.968 L 813.112 241.968 Z M 767.522 216.668 C 764.312 216.688 761.702 214.098 761.682 210.888 C 761.662 207.678 764.252 205.068 767.462 205.048 C 770.672 205.028 773.282 207.618 773.302 210.828 L 773.302 210.858 C 773.302 214.058 770.722 216.648 767.522 216.668 Z M 767.522 206.858 C 765.312 206.858 763.522 208.648 763.522 210.858 C 763.522 213.068 765.312 214.858 767.522 214.858 C 769.732 214.858 771.522 213.068 771.522 210.858 C 771.522 208.648 769.732 206.858 767.522 206.858 Z M 800.322 223.088 L 763.032 223.088 C 762.712 223.088 762.452 222.828 762.452 222.508 C 762.472 222.188 762.722 221.938 763.032 221.928 L 800.322 221.928 C 800.652 221.928 800.922 222.188 800.932 222.508 C 800.932 222.828 800.672 223.088 800.352 223.088 L 800.322 223.088 Z M 783.632 227.178 L 763.032 227.178 C 762.712 227.158 762.462 226.908 762.452 226.598 C 762.452 226.268 762.712 225.998 763.032 225.988 L 783.632 225.988 C 783.952 225.988 784.212 226.248 784.212 226.568 L 784.212 226.598 C 784.212 226.918 783.952 227.178 783.632 227.178 Z" class="cls-29" style="fill: rgb(35, 33, 68);"/>
        <path d="M 760.662 263.858 L 816.182 263.858 L 816.182 305.888 L 760.662 305.888 L 760.662 263.858 Z" class="cls-21" style="fill: rgb(139, 210, 252);"/>
        <path d="M 755.622 263.858 L 811.142 263.858 L 811.142 305.888 L 755.622 305.888 L 755.622 263.858 Z" class="cls-4" style="fill: rgb(255, 255, 255);"/>
        <path d="M 808.442 306.588 L 758.642 306.588 C 756.472 306.588 754.702 304.828 754.702 302.648 L 754.702 266.218 C 754.682 264.048 756.432 262.268 758.602 262.248 L 808.432 262.248 C 810.612 262.268 812.372 264.038 812.372 266.218 L 812.372 302.648 C 812.372 304.818 810.612 306.588 808.432 306.588 L 808.442 306.588 Z M 758.642 264.068 C 757.452 264.068 756.492 265.028 756.492 266.218 L 756.492 302.648 C 756.492 303.838 757.452 304.798 758.642 304.798 L 808.442 304.798 C 809.622 304.778 810.582 303.828 810.592 302.648 L 810.592 266.218 C 810.592 265.028 809.632 264.068 808.442 264.068 L 758.642 264.068 Z" class="cls-29" style="fill: rgb(35, 33, 68);"/>
        <path d="M 813.112 306.588 L 808.742 306.588 C 808.252 306.588 807.852 306.188 807.852 305.698 C 807.852 305.208 808.252 304.808 808.742 304.808 L 813.112 304.808 C 814.412 304.788 815.462 303.738 815.482 302.438 L 815.482 266.438 C 815.482 265.128 814.422 264.068 813.112 264.068 L 808.742 264.068 C 808.252 264.068 807.852 263.668 807.852 263.178 C 807.852 262.678 808.242 262.268 808.742 262.258 L 813.112 262.258 C 815.402 262.258 817.262 264.118 817.262 266.408 L 817.262 302.438 C 817.282 304.718 815.452 306.568 813.172 306.588 L 813.112 306.588 L 813.112 306.588 Z M 767.522 281.288 C 764.312 281.308 761.702 278.718 761.682 275.508 C 761.662 272.298 764.252 269.688 767.462 269.668 C 770.672 269.648 773.282 272.238 773.302 275.448 L 773.302 275.478 C 773.302 278.678 770.722 281.268 767.522 281.288 Z M 767.522 271.478 C 765.312 271.478 763.522 273.268 763.522 275.478 C 763.522 277.688 765.312 279.478 767.522 279.478 C 769.732 279.478 771.522 277.688 771.522 275.478 C 771.522 273.268 769.732 271.478 767.522 271.478 Z M 800.322 287.708 L 763.032 287.708 C 762.712 287.708 762.452 287.448 762.452 287.128 C 762.472 286.808 762.722 286.558 763.032 286.548 L 800.322 286.548 C 800.652 286.548 800.922 286.808 800.932 287.128 C 800.932 287.448 800.672 287.708 800.352 287.708 L 800.322 287.708 Z M 783.632 291.928 L 763.032 291.928 C 762.702 291.908 762.452 291.638 762.452 291.318 C 762.472 290.998 762.722 290.748 763.032 290.738 L 783.632 290.738 C 783.952 290.738 784.212 290.998 784.212 291.318 C 784.232 291.638 783.982 291.918 783.662 291.928 L 783.632 291.928 Z" class="cls-29" style="fill: rgb(35, 33, 68);"/>
        <path d="M 981.582 324.268 C 981.442 324.308 981.292 324.308 981.152 324.268 C 980.832 324.028 980.772 323.578 981.002 323.258 L 988.012 313.268 C 988.232 312.948 988.672 312.858 988.992 313.078 C 989.322 313.288 989.412 313.728 989.202 314.058 C 989.202 314.068 989.182 314.078 989.172 314.098 L 982.162 324.058 C 982.012 324.218 981.792 324.298 981.582 324.278 L 981.582 324.268 Z M 986.752 324.268 C 986.612 324.308 986.462 324.308 986.322 324.268 C 986.052 323.988 986.052 323.538 986.322 323.258 L 990.012 318.098 C 990.252 317.778 990.702 317.718 991.022 317.948 C 991.292 318.218 991.292 318.658 991.022 318.928 L 987.332 324.088 C 987.172 324.238 986.962 324.298 986.752 324.268 Z" class="cls-28" style="fill: rgb(31, 3, 60);"/>
        <path fill="#fff9de" d="M 1018.012 361.808 L 993.482 386.338 L 993.482 398.728 L 843.332 398.728 L 843.332 386.338 L 880.322 361.808 L 1018.012 361.808 Z"/>
        <path d="M 993.482 398.728 L 1018.602 398.728 L 1036.652 398.418 L 1036.952 381.448 L 1036.952 361.838 L 1018.602 361.808 L 993.702 386.058 L 993.482 398.728 L 993.482 398.728 Z" class="cls-24" style="fill: rgb(226, 193, 154);"/>
        <path d="M 865.902 393.188 L 844.382 393.188 C 844.182 393.208 844.002 393.058 843.982 392.848 L 843.982 392.818 C 843.982 392.598 844.162 392.418 844.382 392.418 L 865.902 392.418 C 866.112 392.438 866.272 392.608 866.272 392.818 C 866.272 393.018 866.102 393.188 865.902 393.188 Z M 1035.542 393.188 L 1014.022 393.188 C 1013.822 393.188 1013.652 393.018 1013.652 392.818 C 1013.632 392.618 1013.782 392.438 1013.992 392.418 L 1035.542 392.418 C 1035.762 392.418 1035.942 392.598 1035.942 392.818 C 1035.942 393.018 1035.782 393.188 1035.572 393.188 L 1035.542 393.188 Z" class="cls-19" style="fill: rgb(51, 45, 40);"/>
        <path d="M 863.012 378.038 C 862.632 378.048 862.272 377.868 862.062 377.548 C 861.702 377.028 861.832 376.328 862.342 375.968 C 862.342 375.968 862.362 375.958 862.362 375.948 L 880.812 363.408 C 881.002 363.278 881.222 363.198 881.462 363.188 L 932.282 363.188 C 932.922 363.288 933.352 363.898 933.242 364.528 C 933.162 365.018 932.772 365.408 932.282 365.488 L 881.772 365.488 L 863.632 377.788 C 863.452 377.928 863.242 378.018 863.022 378.038 L 863.012 378.038 Z" class="cls-4" style="fill: rgb(255, 255, 255);"/>
        <ellipse cx="1028.931" cy="372.068" class="cls-20" rx="2.58" ry="3.29" style="fill: rgb(186, 148, 106);"/>
        <path d="M 1028.842 375.918 C 1026.732 376.378 1024.652 375.038 1024.192 372.928 C 1023.732 370.818 1025.072 368.738 1027.182 368.278 C 1029.292 367.818 1031.372 369.158 1031.832 371.268 C 1031.892 371.528 1031.922 371.798 1031.922 372.068 C 1032.102 373.968 1030.742 375.668 1028.852 375.908 L 1028.842 375.918 Z M 1028.842 369.308 C 1027.702 369.308 1026.782 370.568 1026.782 372.078 C 1026.782 373.588 1027.702 374.878 1028.842 374.878 C 1029.982 374.878 1030.932 373.618 1030.932 372.078 C 1030.932 370.538 1030.072 369.308 1028.842 369.308 Z" class="cls-19" style="fill: rgb(51, 45, 40);"/>
        <ellipse cx="1022.782" cy="339.578" class="cls-20" rx="2.58" ry="3.29" style="fill: rgb(186, 148, 106);"/>
        <path d="M 1022.692 343.388 C 1020.582 343.848 1018.502 342.508 1018.042 340.398 C 1017.582 338.288 1018.922 336.208 1021.032 335.748 C 1023.142 335.288 1025.222 336.628 1025.682 338.738 C 1025.742 339.008 1025.772 339.288 1025.772 339.568 C 1025.952 341.458 1024.592 343.158 1022.702 343.378 L 1022.692 343.388 Z M 1022.692 336.778 C 1021.552 336.778 1020.632 338.038 1020.632 339.578 C 1020.632 341.118 1021.552 342.348 1022.692 342.348 C 1023.832 342.348 1024.782 341.088 1024.782 339.578 C 1024.782 338.068 1023.922 336.778 1022.692 336.778 Z" class="cls-19" style="fill: rgb(51, 45, 40);"/>
        <path d="M 1028.842 373.238 L 1043.142 373.238 C 1050.132 373.618 1056.712 369.908 1060.022 363.738 C 1063.782 356.228 1061.692 347.098 1055.042 341.968 C 1050.242 338.308 1044.832 338.398 1039.152 338.398 L 1023.012 338.398 C 1022.372 338.498 1021.942 339.108 1022.052 339.738 C 1022.132 340.228 1022.522 340.618 1023.012 340.698 L 1035.312 340.698 C 1039.842 340.288 1044.402 340.488 1048.872 341.308 C 1056.882 343.808 1061.412 352.258 1059.052 360.308 C 1056.912 366.908 1050.612 371.258 1043.682 370.918 L 1028.862 370.918 C 1028.222 371.018 1027.792 371.628 1027.902 372.258 C 1027.982 372.748 1028.372 373.138 1028.862 373.218 L 1028.842 373.238 Z" class="cls-19" style="fill: rgb(51, 45, 40);"/>
        <path d="M 878.902 377.448 L 884.892 377.448 L 884.892 383.048 L 878.902 383.048 L 878.902 377.448 Z" class="cls-24" style="fill: rgb(226, 193, 154);"/>
        <path d="M 886.222 376.158 L 878.782 376.158 C 878.132 376.158 877.612 376.678 877.612 377.328 L 877.612 382.888 C 877.632 383.528 878.142 384.038 878.782 384.058 L 886.222 384.058 C 886.852 384.038 887.362 383.528 887.362 382.888 L 887.362 377.328 C 887.362 376.698 886.862 376.178 886.222 376.158 C 885.582 376.178 885.072 376.688 885.052 377.328 L 885.052 382.888 L 886.222 381.748 L 878.782 381.748 L 879.922 382.888 L 879.922 377.328 L 878.782 378.468 L 886.222 378.468 C 886.862 378.368 887.292 377.758 887.182 377.128 C 887.102 376.638 886.712 376.248 886.222 376.168 L 886.222 376.158 Z" class="cls-19" style="fill: rgb(51, 45, 40);"/>
        <path d="M 884.342 383.108 C 883.922 383.108 883.572 382.768 883.572 382.338 L 883.572 377.818 C 883.572 377.398 883.912 377.048 884.342 377.048 C 884.772 377.048 885.112 377.388 885.112 377.818 L 885.112 382.338 C 885.112 382.758 884.772 383.108 884.342 383.108 Z" class="cls-19" style="fill: rgb(51, 45, 40);"/>
        <path d="M 892.552 377.448 L 898.542 377.448 L 898.542 383.048 L 892.552 383.048 L 892.552 377.448 Z" class="cls-24" style="fill: rgb(226, 193, 154);"/>
        <path d="M 899.712 376.158 L 892.272 376.158 C 891.642 376.178 891.132 376.688 891.132 377.328 L 891.132 382.888 C 891.132 383.518 891.632 384.038 892.272 384.058 L 899.712 384.058 C 900.352 384.038 900.862 383.528 900.882 382.888 L 900.882 377.328 C 900.982 376.688 900.552 376.088 899.922 375.988 C 899.282 375.888 898.682 376.318 898.582 376.948 C 898.562 377.078 898.562 377.198 898.582 377.328 L 898.582 382.888 L 899.722 381.748 L 892.282 381.748 L 893.452 382.888 L 893.452 377.328 L 892.282 378.468 L 899.722 378.468 C 900.362 378.568 900.962 378.138 901.062 377.508 C 901.162 376.868 900.732 376.268 900.102 376.168 C 899.972 376.148 899.852 376.148 899.722 376.168 L 899.712 376.158 Z" class="cls-19" style="fill: rgb(51, 45, 40);"/>
        <path d="M 898.052 383.108 C 897.632 383.088 897.302 382.758 897.282 382.338 L 897.282 377.818 C 897.282 377.398 897.622 377.048 898.052 377.048 C 898.482 377.048 898.822 377.388 898.822 377.818 L 898.822 382.338 C 898.822 382.758 898.482 383.108 898.052 383.108 Z" class="cls-19" style="fill: rgb(51, 45, 40);"/>
        <path d="M 906.172 377.448 L 912.162 377.448 L 912.162 383.048 L 906.172 383.048 L 906.172 377.448 Z" class="cls-24" style="fill: rgb(226, 193, 154);"/>
        <path d="M 913.492 376.158 L 906.052 376.158 C 905.402 376.158 904.882 376.678 904.882 377.328 L 904.882 382.888 C 904.902 383.528 905.412 384.038 906.052 384.058 L 913.492 384.058 C 914.132 384.038 914.642 383.528 914.662 382.888 L 914.662 377.328 C 914.642 376.688 914.132 376.178 913.492 376.158 C 912.862 376.178 912.352 376.688 912.352 377.328 L 912.352 382.888 L 913.492 381.748 L 906.052 381.748 L 907.192 382.888 L 907.192 377.328 L 906.052 378.468 L 913.492 378.468 C 914.132 378.568 914.732 378.138 914.832 377.508 C 914.932 376.868 914.502 376.268 913.872 376.168 C 913.742 376.148 913.622 376.148 913.492 376.168 L 913.492 376.158 Z" class="cls-19" style="fill: rgb(51, 45, 40);"/>
        <path d="M 911.702 383.108 C 911.282 383.108 910.932 382.768 910.932 382.338 L 910.932 377.818 C 910.932 377.398 911.272 377.048 911.702 377.048 C 912.132 377.048 912.472 377.388 912.472 377.818 L 912.472 382.338 C 912.472 382.758 912.132 383.108 911.702 383.108 Z" class="cls-19" style="fill: rgb(51, 45, 40);"/>
        <path d="M 919.822 377.448 L 925.812 377.448 L 925.812 383.048 L 919.822 383.048 L 919.822 377.448 Z" class="cls-24" style="fill: rgb(226, 193, 154);"/>
        <path d="M 927.142 376.158 L 919.672 376.158 C 919.042 376.178 918.532 376.688 918.532 377.328 L 918.532 382.888 C 918.532 383.518 919.032 384.038 919.672 384.058 L 927.142 384.058 C 927.772 384.038 928.282 383.528 928.282 382.888 L 928.282 377.328 C 928.382 376.688 927.952 376.088 927.322 375.988 C 926.682 375.888 926.082 376.318 925.982 376.948 C 925.962 377.078 925.962 377.198 925.982 377.328 L 925.982 382.888 L 927.152 381.748 L 919.682 381.748 L 920.852 382.888 L 920.852 377.328 L 919.682 378.468 L 927.152 378.468 C 927.792 378.368 928.222 377.758 928.112 377.128 C 928.032 376.638 927.642 376.248 927.152 376.168 L 927.142 376.158 Z" class="cls-19" style="fill: rgb(51, 45, 40);"/>
        <path d="M 925.322 383.108 C 924.902 383.088 924.572 382.758 924.552 382.338 L 924.552 377.818 C 924.552 377.398 924.892 377.048 925.322 377.048 C 925.752 377.048 926.092 377.388 926.092 377.818 L 926.092 382.338 C 926.092 382.758 925.752 383.108 925.322 383.108 Z" class="cls-19" style="fill: rgb(51, 45, 40);"/>
        <path d="M 933.162 377.448 L 939.152 377.448 L 939.152 383.048 L 933.162 383.048 L 933.162 377.448 Z" class="cls-24" style="fill: rgb(226, 193, 154);"/>
        <path d="M 940.482 376.158 L 933.012 376.158 C 932.382 376.178 931.872 376.688 931.872 377.328 L 931.872 382.888 C 931.872 383.518 932.372 384.038 933.012 384.058 L 940.482 384.058 C 941.112 384.038 941.622 383.528 941.622 382.888 L 941.622 377.328 C 941.722 376.688 941.292 376.088 940.662 375.988 C 940.022 375.888 939.422 376.318 939.322 376.948 C 939.302 377.078 939.302 377.198 939.322 377.328 L 939.322 382.888 L 940.492 381.748 L 933.022 381.748 L 934.192 382.888 L 934.192 377.328 L 933.022 378.468 L 940.492 378.468 C 941.132 378.368 941.562 377.758 941.452 377.128 C 941.372 376.638 940.982 376.248 940.492 376.168 L 940.482 376.158 Z" class="cls-19" style="fill: rgb(51, 45, 40);"/>
        <path d="M 938.672 383.108 C 938.252 383.088 937.922 382.758 937.902 382.338 L 937.902 377.818 C 937.902 377.398 938.242 377.048 938.672 377.048 C 939.102 377.048 939.442 377.388 939.442 377.818 L 939.442 382.338 C 939.442 382.758 939.102 383.108 938.672 383.108 Z" class="cls-19" style="fill: rgb(51, 45, 40);"/>
        <path d="M 946.812 377.448 L 952.802 377.448 L 952.802 383.048 L 946.812 383.048 L 946.812 377.448 Z" class="cls-24" style="fill: rgb(226, 193, 154);"/>
        <path d="M 954.102 376.158 L 946.662 376.158 C 946.022 376.178 945.512 376.688 945.492 377.328 L 945.492 382.888 C 945.512 383.528 946.022 384.038 946.662 384.058 L 954.102 384.058 C 954.742 384.038 955.252 383.528 955.272 382.888 L 955.272 377.328 C 955.252 376.688 954.742 376.178 954.102 376.158 C 953.472 376.178 952.962 376.688 952.962 377.328 L 952.962 382.888 L 954.102 381.748 L 946.662 381.748 L 947.802 382.888 L 947.802 377.328 L 946.662 378.468 L 954.102 378.468 C 954.732 378.468 955.252 377.968 955.272 377.328 C 955.252 376.688 954.742 376.178 954.102 376.158 Z" class="cls-19" style="fill: rgb(51, 45, 40);"/>
        <path d="M 952.322 383.108 C 951.902 383.108 951.552 382.768 951.552 382.338 L 951.552 377.818 C 951.552 377.398 951.892 377.048 952.322 377.048 C 952.752 377.048 953.092 377.388 953.092 377.818 L 953.092 382.338 C 953.092 382.758 952.752 383.108 952.322 383.108 Z" class="cls-19" style="fill: rgb(51, 45, 40);"/>
        <path d="M 960.432 377.448 L 966.422 377.448 L 966.422 383.048 L 960.432 383.048 L 960.432 377.448 Z" class="cls-24" style="fill: rgb(226, 193, 154);"/>
        <path d="M 967.752 376.158 L 960.282 376.158 C 959.652 376.178 959.142 376.688 959.142 377.328 L 959.142 382.888 C 959.142 383.518 959.642 384.038 960.282 384.058 L 967.752 384.058 C 968.382 384.038 968.892 383.528 968.892 382.888 L 968.892 377.328 C 968.992 376.688 968.562 376.088 967.932 375.988 C 967.292 375.888 966.692 376.318 966.592 376.948 C 966.572 377.078 966.572 377.198 966.592 377.328 L 966.592 382.888 L 967.762 381.748 L 960.292 381.748 L 961.462 382.888 L 961.462 377.328 L 960.292 378.468 L 967.762 378.468 C 968.402 378.368 968.832 377.758 968.722 377.128 C 968.642 376.638 968.252 376.248 967.762 376.168 L 967.752 376.158 Z" class="cls-19" style="fill: rgb(51, 45, 40);"/>
        <path d="M 965.972 383.108 C 965.552 383.108 965.202 382.768 965.202 382.338 L 965.202 377.818 C 965.202 377.398 965.542 377.048 965.972 377.048 C 966.402 377.048 966.742 377.388 966.742 377.818 L 966.742 382.338 C 966.722 382.758 966.392 383.088 965.972 383.108 Z" class="cls-19" style="fill: rgb(51, 45, 40);"/>
        <path d="M 974.082 377.448 L 980.072 377.448 L 980.072 383.048 L 974.082 383.048 L 974.082 377.448 Z" class="cls-24" style="fill: rgb(226, 193, 154);"/>
        <path d="M 981.372 376.158 L 973.932 376.158 C 973.292 376.178 972.782 376.688 972.762 377.328 L 972.762 382.888 C 972.782 383.528 973.292 384.038 973.932 384.058 L 981.372 384.058 C 982.012 384.038 982.522 383.528 982.542 382.888 L 982.542 377.328 C 982.642 376.688 982.212 376.088 981.582 375.988 C 980.942 375.888 980.342 376.318 980.242 376.948 C 980.222 377.078 980.222 377.198 980.242 377.328 L 980.242 382.888 L 981.382 381.748 L 973.942 381.748 L 975.082 382.888 L 975.082 377.328 L 973.942 378.468 L 981.382 378.468 C 982.012 378.468 982.532 377.968 982.552 377.328 C 982.532 376.688 982.022 376.178 981.382 376.158 L 981.372 376.158 Z" class="cls-19" style="fill: rgb(51, 45, 40);"/>
        <path d="M 979.652 383.108 C 979.232 383.108 978.882 382.768 978.882 382.338 L 978.882 377.818 C 978.882 377.398 979.222 377.048 979.652 377.048 C 980.082 377.048 980.422 377.388 980.422 377.818 L 980.422 382.338 C 980.422 382.758 980.082 383.108 979.652 383.108 Z" class="cls-19" style="fill: rgb(51, 45, 40);"/>
        <path d="M 889.232 367.148 L 895.222 367.148 L 895.222 372.748 L 889.232 372.748 L 889.232 367.148 Z" class="cls-24" style="fill: rgb(226, 193, 154);"/>
        <path d="M 896.642 365.858 L 889.202 365.858 C 888.572 365.858 888.052 366.358 888.032 366.998 L 888.032 372.598 C 888.052 373.228 888.562 373.738 889.202 373.738 L 896.642 373.738 C 897.272 373.738 897.792 373.238 897.812 372.598 L 897.812 366.998 C 897.712 366.358 897.102 365.928 896.472 366.038 C 895.982 366.118 895.592 366.508 895.512 366.998 L 895.512 372.598 L 896.652 371.428 L 889.212 371.428 L 890.352 372.598 L 890.352 366.998 L 889.212 368.168 L 896.652 368.168 C 897.292 368.268 897.892 367.838 897.992 367.208 C 898.092 366.568 897.662 365.968 897.032 365.868 C 896.902 365.848 896.782 365.848 896.652 365.868 L 896.642 365.858 Z" class="cls-19" style="fill: rgb(51, 45, 40);"/>
        <path d="M 894.732 372.778 C 894.312 372.778 893.962 372.438 893.962 372.008 L 893.962 367.518 C 893.962 367.098 894.302 366.748 894.732 366.748 C 895.162 366.748 895.502 367.088 895.502 367.518 L 895.502 372.008 C 895.502 372.428 895.162 372.778 894.732 372.778 Z" class="cls-19" style="fill: rgb(51, 45, 40);"/>
        <path d="M 902.852 367.148 L 908.842 367.148 L 908.842 372.748 L 902.852 372.748 L 902.852 367.148 Z" class="cls-24" style="fill: rgb(226, 193, 154);"/>
        <path d="M 910.172 365.858 L 902.792 365.858 C 902.172 365.878 901.672 366.378 901.652 366.998 L 901.652 372.598 C 901.672 373.218 902.172 373.718 902.792 373.738 L 910.262 373.738 C 910.882 373.718 911.382 373.218 911.402 372.598 L 911.402 366.998 C 911.302 366.358 910.692 365.928 910.062 366.038 C 909.572 366.118 909.182 366.508 909.102 366.998 L 909.102 372.598 L 910.272 371.428 L 902.802 371.428 L 903.972 372.598 L 903.972 366.998 L 902.802 368.168 L 910.272 368.168 C 910.902 368.148 911.412 367.638 911.412 366.998 C 911.392 366.358 910.862 365.848 910.212 365.858 L 910.182 365.858 L 910.172 365.858 Z" class="cls-19" style="fill: rgb(51, 45, 40);"/>
        <path d="M 908.382 372.778 C 907.962 372.778 907.612 372.438 907.612 372.008 L 907.612 367.518 C 907.612 367.098 907.952 366.748 908.382 366.748 C 908.812 366.748 909.152 367.088 909.152 367.518 L 909.152 372.008 C 909.152 372.428 908.812 372.778 908.382 372.778 Z" class="cls-19" style="fill: rgb(51, 45, 40);"/>
        <path d="M 916.502 367.148 L 922.492 367.148 L 922.492 372.748 L 916.502 372.748 L 916.502 367.148 Z" class="cls-24" style="fill: rgb(226, 193, 154);"/>
        <path d="M 923.792 365.858 L 916.352 365.858 C 915.722 365.858 915.202 366.358 915.182 366.998 L 915.182 372.598 C 915.202 373.228 915.712 373.738 916.352 373.738 L 923.792 373.738 C 924.422 373.738 924.942 373.238 924.962 372.598 L 924.962 366.998 C 924.862 366.358 924.252 365.928 923.622 366.038 C 923.132 366.118 922.742 366.508 922.662 366.998 L 922.662 372.598 L 923.802 371.428 L 916.362 371.428 L 917.502 372.598 L 917.502 366.998 L 916.362 368.168 L 923.802 368.168 C 924.442 368.268 925.042 367.838 925.142 367.208 C 925.242 366.568 924.812 365.968 924.182 365.868 C 924.052 365.848 923.932 365.848 923.802 365.868 L 923.792 365.858 Z" class="cls-19" style="fill: rgb(51, 45, 40);"/>
        <path d="M 922.002 372.778 C 921.582 372.778 921.232 372.438 921.232 372.008 L 921.232 367.518 C 921.232 367.098 921.572 366.748 922.002 366.748 C 922.432 366.748 922.772 367.088 922.772 367.518 L 922.772 372.008 C 922.772 372.428 922.432 372.778 922.002 372.778 Z" class="cls-19" style="fill: rgb(51, 45, 40);"/>
        <path d="M 930.122 367.148 L 936.112 367.148 L 936.112 372.748 L 930.122 372.748 L 930.122 367.148 Z" class="cls-24" style="fill: rgb(226, 193, 154);"/>
        <path d="M 937.442 365.858 L 929.972 365.858 C 929.352 365.878 928.852 366.378 928.832 366.998 L 928.832 372.598 C 928.852 373.218 929.352 373.718 929.972 373.738 L 937.442 373.738 C 938.062 373.718 938.562 373.218 938.582 372.598 L 938.582 366.998 C 938.562 366.378 938.062 365.878 937.442 365.858 C 936.812 365.858 936.292 366.358 936.272 366.998 L 936.272 372.598 L 937.442 371.428 L 929.972 371.428 L 931.142 372.598 L 931.142 366.998 L 929.972 368.168 L 937.442 368.168 C 938.072 368.148 938.582 367.638 938.582 366.998 C 938.562 366.378 938.062 365.878 937.442 365.858 Z" class="cls-19" style="fill: rgb(51, 45, 40);"/>
        <path d="M 935.652 372.778 C 935.232 372.778 934.882 372.438 934.882 372.008 L 934.882 367.518 C 934.882 367.098 935.222 366.748 935.652 366.748 C 936.082 366.748 936.422 367.088 936.422 367.518 L 936.422 372.008 C 936.422 372.428 936.082 372.778 935.652 372.778 Z" class="cls-19" style="fill: rgb(51, 45, 40);"/>
        <path d="M 943.462 367.148 L 949.452 367.148 L 949.452 372.748 L 943.462 372.748 L 943.462 367.148 Z" class="cls-24" style="fill: rgb(226, 193, 154);"/>
        <path d="M 950.782 365.858 L 943.342 365.858 C 942.712 365.858 942.192 366.358 942.172 366.998 L 942.172 372.598 C 942.192 373.228 942.702 373.738 943.342 373.738 L 950.782 373.738 C 951.402 373.718 951.902 373.218 951.922 372.598 L 951.922 366.998 C 951.902 366.378 951.402 365.878 950.782 365.858 C 950.152 365.858 949.632 366.358 949.612 366.998 L 949.612 372.598 L 950.782 371.428 L 943.342 371.428 L 944.482 372.598 L 944.482 366.998 L 943.342 368.168 L 950.782 368.168 C 951.412 368.148 951.922 367.638 951.922 366.998 C 951.922 366.368 951.412 365.858 950.782 365.858 Z" class="cls-19" style="fill: rgb(51, 45, 40);"/>
        <path d="M 948.902 372.778 C 948.482 372.778 948.132 372.438 948.132 372.008 L 948.132 367.518 C 948.132 367.098 948.472 366.748 948.902 366.748 C 949.332 366.748 949.672 367.088 949.672 367.518 L 949.672 372.008 C 949.672 372.428 949.332 372.778 948.902 372.778 Z" class="cls-19" style="fill: rgb(51, 45, 40);"/>
        <path d="M 957.112 367.148 L 963.102 367.148 L 963.102 372.748 L 957.112 372.748 L 957.112 367.148 Z" class="cls-24" style="fill: rgb(226, 193, 154);"/>
        <path d="M 964.282 365.858 L 956.842 365.858 C 956.222 365.878 955.722 366.378 955.702 366.998 L 955.702 372.598 C 955.722 373.218 956.222 373.718 956.842 373.738 L 964.282 373.738 C 964.912 373.738 965.432 373.238 965.452 372.598 L 965.452 366.998 C 965.352 366.358 964.742 365.928 964.112 366.038 C 963.622 366.118 963.232 366.508 963.152 366.998 L 963.152 372.598 L 964.292 371.428 L 956.852 371.428 L 958.022 372.598 L 958.022 366.998 L 956.852 368.168 L 964.292 368.168 C 964.932 368.148 965.442 367.638 965.462 366.998 C 965.442 366.368 964.932 365.858 964.292 365.858 L 964.282 365.858 Z" class="cls-19" style="fill: rgb(51, 45, 40);"/>
        <path d="M 962.622 372.778 C 962.202 372.778 961.852 372.438 961.852 372.008 L 961.852 367.518 C 961.852 367.098 962.192 366.748 962.622 366.748 C 963.052 366.748 963.392 367.088 963.392 367.518 L 963.392 372.008 C 963.392 372.428 963.052 372.778 962.622 372.778 Z" class="cls-19" style="fill: rgb(51, 45, 40);"/>
        <path d="M 970.732 367.148 L 976.722 367.148 L 976.722 372.748 L 970.732 372.748 L 970.732 367.148 Z" class="cls-24" style="fill: rgb(226, 193, 154);"/>
        <path d="M 978.052 365.858 L 970.612 365.858 C 969.982 365.858 969.462 366.358 969.442 366.998 L 969.442 372.598 C 969.462 373.228 969.972 373.738 970.612 373.738 L 978.052 373.738 C 978.682 373.738 979.202 373.238 979.222 372.598 L 979.222 366.998 C 979.202 366.368 978.692 365.858 978.052 365.858 C 977.432 365.878 976.932 366.378 976.912 366.998 L 976.912 372.598 L 978.052 371.428 L 970.612 371.428 L 971.752 372.598 L 971.752 366.998 L 970.612 368.168 L 978.052 368.168 C 978.692 368.148 979.202 367.638 979.222 366.998 C 979.202 366.368 978.692 365.858 978.052 365.858 Z" class="cls-19" style="fill: rgb(51, 45, 40);"/>
        <path d="M 976.272 372.778 C 975.852 372.778 975.502 372.438 975.502 372.008 L 975.502 367.518 C 975.502 367.098 975.842 366.748 976.272 366.748 C 976.702 366.748 977.042 367.088 977.042 367.518 L 977.042 372.008 C 977.042 372.428 976.702 372.778 976.272 372.778 Z" class="cls-19" style="fill: rgb(51, 45, 40);"/>
        <path d="M 984.382 367.148 L 990.372 367.148 L 990.372 372.748 L 984.382 372.748 L 984.382 367.148 Z" class="cls-24" style="fill: rgb(226, 193, 154);"/>
        <path d="M 991.702 365.858 L 984.232 365.858 C 983.612 365.878 983.112 366.378 983.092 366.998 L 983.092 372.598 C 983.112 373.218 983.612 373.718 984.232 373.738 L 991.702 373.738 C 992.322 373.718 992.822 373.218 992.842 372.598 L 992.842 366.998 C 992.742 366.358 992.132 365.928 991.502 366.038 C 991.012 366.118 990.622 366.508 990.542 366.998 L 990.542 372.598 L 991.712 371.428 L 984.242 371.428 L 985.412 372.598 L 985.412 366.998 L 984.242 368.168 L 991.712 368.168 C 992.342 368.148 992.852 367.638 992.852 366.998 C 992.832 366.378 992.332 365.878 991.712 365.858 L 991.702 365.858 Z" class="cls-19" style="fill: rgb(51, 45, 40);"/>
        <path d="M 989.882 372.778 C 989.462 372.778 989.112 372.438 989.112 372.008 L 989.112 367.518 C 989.112 367.098 989.452 366.748 989.882 366.748 C 990.312 366.748 990.652 367.088 990.652 367.518 L 990.652 372.008 C 990.652 372.428 990.312 372.778 989.882 372.778 Z" class="cls-19" style="fill: rgb(51, 45, 40);"/>
        <path d="M 813.332 244.698 L 767.522 244.698 C 766.672 244.698 765.982 244.008 765.982 243.158 C 765.982 242.308 766.672 241.618 767.522 241.618 L 813.632 241.618 C 815.842 241.618 817.632 239.828 817.632 237.618 L 817.632 207.278 C 817.632 206.428 818.322 205.738 819.172 205.738 C 820.022 205.738 820.712 206.428 820.712 207.278 L 820.712 237.618 C 820.702 241.538 817.512 244.708 813.582 244.698 L 813.332 244.698 L 813.332 244.698 Z M 813.332 309.938 L 767.522 309.938 C 766.672 309.938 765.982 309.248 765.982 308.398 C 765.982 307.548 766.672 306.858 767.522 306.858 L 813.632 306.858 C 815.842 306.858 817.632 305.068 817.632 302.858 L 817.632 272.518 C 817.632 271.668 818.322 270.978 819.172 270.978 C 820.022 270.978 820.712 271.668 820.712 272.518 L 820.712 302.858 C 820.712 306.768 817.552 309.928 813.652 309.938 L 813.342 309.938 L 813.332 309.938 Z M 894.492 244.698 L 848.382 244.698 C 847.532 244.698 846.842 244.008 846.842 243.158 C 846.842 242.308 847.532 241.618 848.382 241.618 L 894.492 241.618 C 896.702 241.618 898.492 239.828 898.492 237.618 L 898.492 207.278 C 898.492 206.428 899.182 205.738 900.032 205.738 C 900.882 205.738 901.572 206.428 901.572 207.278 L 901.572 237.618 C 901.552 241.518 898.402 244.668 894.502 244.688 L 894.492 244.698 Z M 894.492 309.358 L 848.382 309.358 C 847.532 309.358 846.842 308.668 846.842 307.818 C 846.842 306.968 847.532 306.278 848.382 306.278 L 894.492 306.278 C 896.702 306.278 898.492 304.488 898.492 302.278 L 898.492 271.938 C 898.492 271.088 899.182 270.398 900.032 270.398 C 900.882 270.398 901.572 271.088 901.572 271.938 L 901.572 302.278 C 901.572 306.188 898.402 309.348 894.502 309.348 L 894.492 309.358 Z M 975.802 244.698 L 929.692 244.698 C 928.852 244.678 928.172 243.998 928.152 243.158 C 928.152 242.308 928.842 241.618 929.692 241.618 L 975.802 241.618 C 978.002 241.598 979.782 239.818 979.802 237.618 L 979.802 207.278 C 979.802 206.428 980.492 205.738 981.342 205.738 C 982.192 205.738 982.882 206.428 982.882 207.278 L 982.882 237.618 C 982.862 241.518 979.712 244.668 975.812 244.688 L 975.802 244.698 Z M 975.962 309.628 L 929.852 309.628 C 929.002 309.628 928.312 308.938 928.312 308.088 C 928.312 307.238 929.002 306.548 929.852 306.548 L 975.962 306.548 C 978.172 306.548 979.962 304.758 979.962 302.548 L 979.962 272.208 C 979.962 271.358 980.652 270.668 981.502 270.668 C 982.352 270.668 983.042 271.358 983.042 272.208 L 983.042 302.548 C 983.042 306.458 979.872 309.618 975.972 309.618 L 975.962 309.628 Z" class="cls-21" style="fill: rgb(139, 210, 252);"/>
        <path d="M 808.442 241.968 L 758.642 241.968 C 756.472 241.968 754.702 240.208 754.702 238.028 L 754.702 201.598 C 754.702 199.428 756.462 197.658 758.642 197.658 L 808.442 197.658 C 810.612 197.658 812.382 199.418 812.382 201.598 L 812.382 238.028 C 812.382 240.198 810.622 241.968 808.442 241.968 L 808.442 241.968 Z M 758.642 199.508 C 757.452 199.508 756.492 200.468 756.492 201.658 L 756.492 238.028 C 756.492 239.218 757.452 240.178 758.642 240.178 L 808.442 240.178 C 809.622 240.158 810.582 239.208 810.592 238.028 L 810.592 201.598 C 810.592 200.408 809.632 199.448 808.442 199.448 L 758.642 199.508 Z M 889.722 241.968 L 839.952 241.968 C 837.782 241.988 836.002 240.238 835.982 238.068 L 835.982 201.598 C 835.982 199.428 837.742 197.658 839.922 197.658 L 889.722 197.658 C 891.862 197.708 893.562 199.458 893.562 201.598 L 893.562 238.028 C 893.562 240.168 891.852 241.918 889.722 241.968 L 889.722 241.968 Z M 839.952 199.508 C 838.762 199.508 837.802 200.468 837.802 201.658 L 837.802 238.028 C 837.802 239.218 838.762 240.178 839.952 240.178 L 889.722 240.178 C 890.912 240.178 891.872 239.218 891.872 238.028 L 891.872 201.598 C 891.872 200.408 890.912 199.448 889.722 199.448 L 839.952 199.508 Z" class="cls-29" style="fill: rgb(35, 33, 68);"/>
        <path d="M 894.432 241.968 L 890.062 241.968 C 889.572 241.968 889.172 241.568 889.172 241.078 C 889.172 240.588 889.572 240.188 890.062 240.188 L 894.432 240.188 C 895.732 240.168 896.782 239.118 896.802 237.818 L 896.802 201.818 C 896.802 200.508 895.742 199.448 894.432 199.448 L 890.062 199.448 C 889.572 199.448 889.172 199.048 889.172 198.558 C 889.172 198.068 889.572 197.668 890.062 197.668 L 894.432 197.668 C 896.722 197.668 898.582 199.528 898.582 201.818 L 898.582 237.818 C 898.582 240.108 896.722 241.968 894.432 241.968 Z M 971.042 241.968 L 921.242 241.968 C 919.072 241.968 917.302 240.208 917.302 238.028 L 917.302 201.598 C 917.302 199.428 919.062 197.658 921.242 197.658 L 971.042 197.658 C 973.212 197.658 974.982 199.418 974.982 201.598 L 974.982 238.028 C 974.982 240.198 973.222 241.968 971.042 241.968 L 971.042 241.968 Z M 921.242 199.508 C 920.052 199.508 919.092 200.468 919.092 201.658 L 919.092 238.028 C 919.112 239.208 920.062 240.168 921.242 240.178 L 971.042 240.178 C 972.232 240.178 973.192 239.218 973.192 238.028 L 973.192 201.598 C 973.192 200.408 972.232 199.448 971.042 199.448 L 921.242 199.508 Z" class="cls-29" style="fill: rgb(35, 33, 68);"/>
        <path d="M 975.712 241.968 L 971.342 241.968 C 970.852 241.968 970.452 241.568 970.452 241.078 C 970.452 240.588 970.852 240.188 971.342 240.188 L 975.712 240.188 C 977.022 240.188 978.082 239.128 978.082 237.818 L 978.082 201.818 C 978.102 200.528 977.062 199.468 975.772 199.448 L 971.342 199.448 C 970.852 199.448 970.452 199.048 970.452 198.558 C 970.452 198.068 970.852 197.668 971.342 197.668 L 975.712 197.668 C 978.002 197.648 979.872 199.498 979.892 201.788 L 979.892 237.818 C 979.892 240.108 978.032 241.968 975.742 241.968 L 975.712 241.968 L 975.712 241.968 Z M 889.722 306.588 L 839.952 306.588 C 837.782 306.608 836.002 304.858 835.982 302.688 L 835.982 266.228 C 835.982 264.038 837.762 262.258 839.952 262.258 L 889.722 262.258 C 891.862 262.328 893.562 264.078 893.562 266.228 L 893.562 302.658 C 893.562 304.798 891.852 306.548 889.722 306.598 L 889.722 306.588 Z M 839.952 264.068 C 838.762 264.068 837.802 265.028 837.802 266.218 L 837.802 302.648 C 837.802 303.838 838.762 304.798 839.952 304.798 L 889.722 304.798 C 890.912 304.798 891.872 303.838 891.872 302.648 L 891.872 266.218 C 891.872 265.028 890.912 264.068 889.722 264.068 L 839.952 264.068 Z" class="cls-29" style="fill: rgb(35, 33, 68);"/>
        <path d="M 894.432 306.588 L 890.062 306.588 C 889.572 306.588 889.172 306.188 889.172 305.698 C 889.172 305.208 889.572 304.808 890.062 304.808 L 894.432 304.808 C 895.732 304.788 896.782 303.738 896.802 302.438 L 896.802 266.438 C 896.802 265.128 895.742 264.068 894.432 264.068 L 890.062 264.068 C 889.572 264.068 889.172 263.668 889.172 263.178 C 889.172 262.678 889.562 262.268 890.062 262.258 L 894.432 262.258 C 896.732 262.278 898.582 264.138 898.582 266.438 L 898.582 302.438 C 898.582 304.728 896.722 306.588 894.432 306.588 L 894.432 306.588 Z M 971.042 306.588 L 921.242 306.588 C 919.072 306.588 917.302 304.828 917.302 302.648 L 917.302 266.218 C 917.302 264.038 919.062 262.268 921.242 262.248 L 971.042 262.248 C 973.212 262.248 974.982 264.008 974.982 266.188 L 974.982 302.648 C 974.982 304.818 973.222 306.588 971.042 306.588 Z M 921.242 264.068 C 920.052 264.068 919.092 265.028 919.092 266.218 L 919.092 302.648 C 919.112 303.828 920.062 304.788 921.242 304.798 L 971.042 304.798 C 972.232 304.798 973.192 303.838 973.192 302.648 L 973.192 266.218 C 973.192 265.028 972.232 264.068 971.042 264.068 L 921.242 264.068 Z" class="cls-29" style="fill: rgb(35, 33, 68);"/>
        <path d="M 975.712 306.588 L 971.342 306.588 C 970.852 306.588 970.452 306.188 970.452 305.698 C 970.452 305.208 970.852 304.808 971.342 304.808 L 975.712 304.808 C 977.022 304.808 978.082 303.748 978.082 302.438 L 978.082 266.438 C 978.102 265.148 977.062 264.088 975.772 264.068 L 971.342 264.068 C 970.852 264.068 970.452 263.668 970.452 263.178 C 970.452 262.678 970.842 262.268 971.342 262.258 L 975.712 262.258 C 978.022 262.258 979.892 264.128 979.892 266.438 L 979.892 302.438 C 979.892 304.728 978.032 306.588 975.742 306.588 L 975.712 306.588 L 975.712 306.588 Z" class="cls-29" style="fill: rgb(35, 33, 68);"/>
        <path d="M 521.262 237.478 L 392.452 237.478 C 390.752 237.478 389.382 236.098 389.382 234.408 C 389.382 232.718 390.762 231.338 392.452 231.338 L 521.262 231.338 C 522.962 231.338 524.332 232.718 524.332 234.408 C 524.332 236.098 522.952 237.478 521.262 237.478 Z" class="cls-34" style="fill: rgb(82, 82, 102);"/>
        <path d="M 406.752 415.388 L 328.502 415.388 C 327.532 415.388 326.752 414.608 326.752 413.638 C 326.752 412.668 327.532 411.888 328.502 411.888 L 406.752 411.888 C 407.722 411.888 408.502 412.668 408.502 413.638 C 408.502 414.608 407.722 415.388 406.752 415.388 Z" class="cls-2" style="fill: rgb(0, 2, 1);"/>
        <path class="hosting-link" d="M 528.702 280.208 L 582.322 280.208 C 583.172 279.908 583.622 278.978 583.322 278.128 C 583.162 277.658 582.792 277.298 582.322 277.128 L 528.702 277.128 C 527.852 277.428 527.402 278.358 527.702 279.208 C 527.862 279.678 528.232 280.038 528.702 280.208 Z M 637.692 280.298 L 698.222 280.298 C 699.072 279.998 699.522 279.068 699.222 278.218 C 699.062 277.748 698.692 277.388 698.222 277.218 L 637.692 277.218 C 636.802 277.338 636.182 278.168 636.302 279.058 C 636.402 279.778 636.972 280.348 637.692 280.448 L 637.692 280.298 L 637.692 280.298 Z" class="cls-19" style="fill: rgb(51, 45, 40);"/>
        <path fill="#d89a56" d="M 995.762 396.268 C 994.912 396.268 994.222 395.578 994.222 394.728 L 994.222 387.508 C 994.222 387.108 994.382 386.728 994.652 386.428 L 1018.322 362.448 C 1018.962 361.888 1019.932 361.958 1020.492 362.598 C 1020.992 363.168 1020.992 364.018 1020.502 364.598 L 997.292 388.148 L 997.292 394.788 C 997.262 395.608 996.582 396.268 995.752 396.268 L 995.762 396.268 Z"/>
        <path d="M 844.382 388.368 L 992.902 388.368 C 993.662 388.368 994.282 387.748 994.282 386.988 C 994.282 386.228 993.662 385.608 992.902 385.608 L 844.382 385.608 C 843.622 385.608 843.002 386.228 843.002 386.988 C 843.002 387.748 843.622 388.368 844.382 388.368 Z" class="cls-19" style="fill: rgb(51, 45, 40);"/>
        <path d="M 1016.822 360.878 L 997.422 380.308 C 995.762 381.938 992.502 384.118 991.892 386.458 C 991.662 388.498 991.662 390.568 991.892 392.608 L 991.892 398.758 L 993.272 397.378 L 843.122 397.378 L 844.502 398.758 L 844.502 388.218 C 844.502 387.848 844.722 386.898 844.502 386.618 C 844.282 386.338 843.612 387.508 844.012 387.478 C 844.412 387.448 845.642 386.398 846.072 386.128 L 866.422 372.598 L 876.472 365.898 C 877.482 365.218 878.562 364.608 879.542 363.868 C 880.522 363.128 881.482 362.978 880.092 363.258 C 882.562 363.028 885.062 363.028 887.532 363.258 L 1017.792 363.258 C 1018.552 363.258 1019.172 362.638 1019.172 361.878 C 1019.172 361.118 1018.552 360.498 1017.792 360.498 L 889.312 360.498 C 886.242 360.218 883.152 360.218 880.092 360.498 C 879.082 360.778 878.152 361.268 877.352 361.938 L 868.532 367.808 L 844.862 383.518 C 843.202 384.598 841.792 385.058 841.602 387.088 C 841.382 390.988 841.382 394.898 841.602 398.798 C 841.622 399.558 842.232 400.168 842.982 400.178 L 993.132 400.178 C 993.892 400.158 994.502 399.548 994.512 398.798 L 994.512 386.498 C 994.512 386.498 993.652 387.448 994.512 386.898 C 994.942 386.528 995.342 386.128 995.712 385.698 L 1000.172 381.208 L 1018.622 362.758 C 1018.962 362.078 1018.682 361.248 1018.002 360.898 C 1017.632 360.708 1017.192 360.708 1016.812 360.878 L 1016.822 360.878 Z" class="cls-19" style="fill: rgb(51, 45, 40);"/>
        <path d="M 993.272 400.168 L 1037.022 400.168 C 1037.782 400.148 1038.392 399.538 1038.402 398.788 L 1038.402 361.898 C 1038.382 361.138 1037.772 360.528 1037.022 360.518 L 1023.062 360.518 C 1022.302 360.518 1021.682 361.138 1021.682 361.898 C 1021.682 362.658 1022.302 363.278 1023.062 363.278 L 1037.022 363.278 L 1035.642 361.898 L 1035.642 398.788 L 1037.022 397.408 L 993.272 397.408 C 992.512 397.408 991.892 398.028 991.892 398.788 C 991.892 399.548 992.512 400.168 993.272 400.168 Z" class="cls-19" style="fill: rgb(51, 45, 40);"/>
        <path fill="#f4ad5e" d="M 303.572 397.708 L 1055.492 397.708 L 1055.492 426.488 L 303.572 426.488 L 303.572 397.708 Z"/>
        <path fill="#ffc68d" d="M 304.222 397.248 L 1056.142 397.248 L 1056.142 409.578 L 304.222 409.578 L 304.222 397.248 Z"/>
        <path fill="#e28c37" d="M 303.052 419.228 L 1054.972 419.228 L 1054.972 425.408 L 303.052 425.408 L 303.052 419.228 Z"/>
        <path d="M 756.912 232.558 C 746.012 232.558 737.172 223.718 737.172 212.818 L 737.172 188.958 L 757.002 180.628 L 776.742 188.958 L 776.742 212.818 C 776.762 223.698 767.952 232.538 757.062 232.558 L 756.912 232.558 Z" class="cls-12" style="fill: rgb(255, 69, 0);"/>
        <path d="M 776.742 189.178 L 776.742 213.038 C 776.742 223.938 767.902 232.778 757.002 232.778 L 757.002 180.878 L 776.742 189.178 Z" class="cls-23" style="fill: rgb(204, 48, 0);"/>
        <path d="M 742.492 224.568 C 739.822 221.238 738.362 217.098 738.342 212.828 L 738.342 197.798 C 738.242 197.158 737.632 196.728 737.002 196.838 C 736.512 196.918 736.122 197.308 736.042 197.798 L 736.042 209.728 C 735.932 211.518 735.932 213.318 736.042 215.108 C 736.522 219.178 738.152 223.028 740.742 226.208 C 741.692 227.378 743.292 225.718 742.372 224.578 L 742.492 224.578 L 742.492 224.568 Z M 775.512 207.468 L 775.512 214.568 C 775.132 218.738 773.342 222.648 770.442 225.668 C 763.832 232.448 753.212 233.248 745.662 227.548 C 744.462 226.688 743.322 228.688 744.492 229.548 C 753.712 236.468 766.792 234.608 773.722 225.388 C 776.132 222.188 777.562 218.358 777.852 214.358 L 777.852 207.468 C 777.752 206.828 777.142 206.398 776.512 206.508 C 776.022 206.588 775.632 206.978 775.552 207.468 L 775.522 207.468 L 775.512 207.468 Z M 738.342 192.988 L 738.342 188.958 L 737.482 190.068 L 754.762 182.808 C 755.642 182.568 756.492 182.218 757.282 181.758 C 757.282 182.038 756.082 181.268 756.732 181.758 C 757.122 181.978 757.532 182.148 757.962 182.278 L 768.042 186.578 L 776.062 189.988 L 775.512 188.978 L 775.512 202.848 C 775.612 203.488 776.222 203.918 776.852 203.808 C 777.342 203.728 777.732 203.338 777.812 202.848 L 777.812 188.978 C 777.812 188.568 777.592 188.188 777.232 187.998 L 759.772 180.588 C 759.072 180.228 758.342 179.918 757.592 179.668 C 756.862 179.508 756.092 179.648 755.472 180.068 L 745.362 184.308 L 736.782 187.848 C 736.302 188.008 735.972 188.448 735.952 188.958 L 735.952 192.988 C 736.052 193.628 736.662 194.058 737.292 193.948 C 737.782 193.868 738.172 193.478 738.252 192.988 L 738.342 192.988 L 738.342 192.988 Z" class="cls-19" style="fill: rgb(51, 45, 40);"/>
        <path d="M 748.242 210.758 L 754.672 215.308 C 755.972 216.048 757.632 215.628 758.422 214.358 L 766.322 202.828 L 767.462 201.168 C 768.212 199.868 767.772 198.208 766.482 197.448 C 765.182 196.708 763.522 197.128 762.732 198.398 L 754.832 209.928 L 753.692 211.588 L 757.442 210.608 L 751.012 206.028 C 749.712 205.278 748.052 205.718 747.292 207.008 C 746.552 208.308 746.972 209.968 748.242 210.758 L 748.242 210.758 Z" class="cls-4" style="fill: rgb(255, 255, 255);"/>
        <path d="M 610.202 304.618 C 599.312 304.598 590.492 295.768 590.492 284.878 L 590.492 260.988 L 610.322 252.628 L 629.932 260.988 L 629.932 284.848 C 629.952 295.748 621.122 304.598 610.222 304.618 L 610.192 304.618 L 610.202 304.618 Z" class="cls-12" style="fill: rgb(255, 69, 0);"/>
        <path d="M 629.942 261.208 L 629.942 285.068 C 629.942 295.968 621.102 304.808 610.202 304.808 L 610.202 252.918 L 629.942 261.218 L 629.942 261.208 Z" class="cls-23" style="fill: rgb(204, 48, 0);"/>
        <path d="M 595.822 296.628 C 593.132 293.298 591.662 289.158 591.642 284.888 L 591.642 269.828 C 591.542 269.188 590.932 268.758 590.302 268.868 C 589.812 268.948 589.422 269.338 589.342 269.828 L 589.342 281.788 C 589.252 283.578 589.252 285.378 589.342 287.168 C 589.812 291.248 591.462 295.098 594.072 298.268 C 594.992 299.408 596.622 297.778 595.702 296.638 L 595.822 296.638 L 595.822 296.628 Z M 628.802 279.438 L 628.802 286.568 C 628.442 290.828 626.612 294.818 623.642 297.878 C 617.032 304.648 606.422 305.448 598.862 299.758 C 597.692 298.868 596.522 300.868 597.722 301.758 C 606.952 308.668 620.032 306.778 626.942 297.548 C 629.332 294.358 630.752 290.548 631.052 286.568 C 631.232 284.258 631.052 281.958 631.052 279.648 C 630.952 279.008 630.342 278.578 629.712 278.688 C 629.222 278.768 628.832 279.158 628.752 279.648 L 628.812 279.428 L 628.802 279.438 Z M 591.642 265.058 L 591.642 260.998 L 590.812 262.108 L 608.062 254.848 C 608.342 254.848 610.522 254.078 610.582 253.768 C 610.582 254.048 609.382 253.308 610.032 253.768 C 610.422 253.988 610.832 254.158 611.262 254.288 L 621.342 258.558 L 629.362 261.968 L 628.812 260.988 L 628.812 274.858 C 628.912 275.498 629.522 275.928 630.152 275.818 C 630.642 275.738 631.032 275.348 631.112 274.858 L 631.112 260.988 C 631.112 260.568 630.892 260.178 630.532 259.978 L 613.102 252.568 C 612.392 252.218 611.662 251.908 610.922 251.648 C 610.032 251.398 609.602 251.648 608.772 252.048 L 598.662 256.318 L 590.212 259.888 C 589.662 259.978 589.252 260.438 589.232 260.998 L 589.232 265.028 C 589.332 265.668 589.942 266.098 590.572 265.988 C 591.062 265.908 591.452 265.518 591.532 265.028 L 591.652 265.058 L 591.642 265.058 Z" class="cls-19" style="fill: rgb(51, 45, 40);"/>
        <path d="M 601.502 282.788 L 607.892 287.368 C 609.202 288.098 610.862 287.668 611.642 286.388 L 619.542 274.858 L 620.682 273.228 C 621.452 271.928 621.012 270.248 619.712 269.488 C 618.402 268.768 616.752 269.208 615.962 270.468 L 608.062 281.998 L 606.922 283.628 L 610.732 282.518 L 604.342 277.938 C 603.032 277.188 601.362 277.628 600.592 278.918 C 599.872 280.228 600.312 281.878 601.572 282.668 L 601.512 282.788 L 601.502 282.788 Z" class="cls-4" style="fill: rgb(255, 255, 255);"/>
        <path d="M 845.452 232.558 C 834.552 232.558 825.712 223.718 825.712 212.818 L 825.712 188.958 L 845.542 180.628 L 865.182 188.958 L 865.182 212.818 C 865.202 223.698 856.392 232.538 845.502 232.558 L 845.442 232.558 L 845.452 232.558 Z" class="cls-12" style="fill: rgb(255, 69, 0);"/>
        <path d="M 865.192 189.178 L 865.192 213.038 C 865.192 223.938 856.352 232.778 845.452 232.778 L 845.452 180.878 L 865.192 189.178 Z" class="cls-23" style="fill: rgb(204, 48, 0);"/>
        <path d="M 831.032 224.568 C 828.362 221.238 826.902 217.098 826.882 212.828 L 826.882 197.798 C 826.782 197.158 826.172 196.728 825.542 196.838 C 825.052 196.918 824.662 197.308 824.582 197.798 L 824.582 209.728 C 824.472 211.518 824.472 213.318 824.582 215.108 C 825.062 219.178 826.692 223.028 829.282 226.208 C 830.232 227.378 831.832 225.718 830.912 224.578 L 831.032 224.578 L 831.032 224.568 Z M 864.052 207.468 L 864.052 214.568 C 863.672 218.738 861.882 222.648 858.982 225.668 C 852.372 232.448 841.752 233.248 834.202 227.548 C 833.002 226.688 831.862 228.688 833.032 229.548 C 842.252 236.468 855.332 234.608 862.262 225.388 C 864.672 222.188 866.102 218.358 866.392 214.358 C 866.542 212.078 866.392 209.748 866.392 207.468 C 866.292 206.828 865.682 206.398 865.052 206.508 C 864.562 206.588 864.172 206.978 864.092 207.468 L 864.062 207.468 L 864.052 207.468 Z M 826.882 192.988 L 826.882 188.958 L 826.022 190.068 L 843.302 182.808 C 844.182 182.568 845.032 182.218 845.822 181.758 C 845.822 182.038 844.622 181.268 845.272 181.758 C 845.662 181.978 846.072 182.148 846.502 182.278 L 856.582 186.578 L 864.602 189.988 L 864.052 188.978 L 864.052 202.848 C 864.152 203.488 864.762 203.918 865.392 203.808 C 865.882 203.728 866.272 203.338 866.352 202.848 L 866.352 188.978 C 866.352 188.568 866.132 188.188 865.772 187.998 L 848.312 180.588 C 847.612 180.228 846.882 179.918 846.132 179.668 C 845.402 179.508 844.632 179.648 844.012 180.068 L 833.902 184.308 L 825.412 187.878 C 824.932 188.038 824.602 188.478 824.582 188.988 L 824.582 193.018 C 824.682 193.658 825.292 194.088 825.922 193.978 C 826.412 193.898 826.802 193.508 826.882 193.018 L 826.882 192.988 L 826.882 192.988 Z" class="cls-19" style="fill: rgb(51, 45, 40);"/>
        <path d="M 836.782 210.758 L 843.212 215.308 C 844.512 216.048 846.172 215.628 846.962 214.358 L 854.862 202.828 L 856.002 201.168 C 856.752 199.868 856.312 198.208 855.022 197.448 C 853.722 196.708 852.062 197.128 851.272 198.398 L 843.372 209.928 L 842.232 211.588 L 845.982 210.608 L 839.552 206.028 C 838.252 205.278 836.592 205.718 835.832 207.008 C 835.092 208.308 835.512 209.968 836.782 210.758 L 836.782 210.758 Z" class="cls-4" style="fill: rgb(255, 255, 255);"/>
        <path d="M 616.382 192.038 L 589.702 192.038 L 589.702 190.468 L 614.822 190.468 L 614.822 171.838 L 648.452 171.838 L 648.452 173.408 L 616.382 173.408 L 616.382 192.038 Z M 644.392 210.358 L 602.272 210.358 L 602.272 192.128 L 603.842 192.128 L 603.842 208.828 L 644.392 208.828 L 644.392 210.358 L 644.392 210.358 Z" class="cls-35" style="fill: rgb(27, 60, 71); isolation: isolate; opacity: 0.15;"/>
        <path d="M 619.062 190.468 L 636.122 190.468 L 636.122 192.008 L 619.062 192.008 L 619.062 190.468 Z M 600.272 228.988 L 558.032 228.988 L 558.032 208.728 L 600.272 208.728 L 600.272 228.988 Z M 559.572 227.448 L 598.742 227.448 L 598.742 210.358 L 559.572 210.358 L 559.572 227.448 Z M 681.042 358.818 L 657.582 358.818 L 657.582 342.438 L 629.392 342.438 L 629.392 341.078 L 658.932 341.078 L 658.932 357.468 L 681.042 357.468 L 681.042 358.818 Z M 669.972 374.928 L 632.952 374.928 L 632.952 373.578 L 668.622 373.578 L 668.622 358.918 L 669.972 358.918 L 669.972 374.928 Z M 640.212 357.468 L 655.212 357.468 L 655.212 358.818 L 640.212 358.818 L 640.212 357.468 Z M 708.862 391.288 L 708.862 373.578 L 708.862 391.288 Z M 673.072 389.938 L 707.472 389.938 L 673.072 389.938 Z" class="cls-35" style="fill: rgb(27, 60, 71); isolation: isolate; opacity: 0.15;"/>
        <path fill="#9f9ec3" d="M 717.252 362.758 L 722.972 362.758 C 724.052 362.898 725.032 362.128 725.172 361.048 C 725.312 359.968 724.542 358.988 723.462 358.848 C 723.302 358.828 723.132 358.828 722.972 358.848 L 717.252 358.848 C 716.172 358.708 715.192 359.478 715.052 360.558 C 714.912 361.638 715.682 362.618 716.762 362.758 C 716.922 362.778 717.092 362.778 717.252 362.758 Z"/>
        <path fill="#ffe992" d="M 699.112 379.388 L 731.852 379.388 L 732.962 377.548 C 737.602 369.708 739.452 350.678 738.092 341.668 L 705.292 341.668 C 706.642 350.678 704.832 369.738 700.162 377.548 L 699.112 379.388 Z"/>
        <path fill="#fff6d3" d="M 727.552 380.248 L 731.242 380.248 L 732.352 378.438 C 737.022 370.598 738.842 351.538 737.482 342.528 L 733.702 342.528 C 735.052 351.538 736.442 379.418 699.542 379.418 L 727.552 380.248 L 727.552 380.248 Z"/>
        <path d="M 711.172 348.618 L 728.392 348.618 C 728.882 348.618 729.282 348.218 729.282 347.728 C 729.282 347.238 728.882 346.838 728.392 346.838 L 711.172 346.838 C 710.682 346.838 710.282 347.238 710.282 347.728 C 710.282 348.218 710.682 348.618 711.172 348.618 Z M 711.532 354.428 L 724.932 354.428 C 725.422 354.428 725.822 354.028 725.822 353.538 C 725.822 353.048 725.422 352.648 724.932 352.648 L 711.532 352.648 C 711.042 352.648 710.642 353.048 710.642 353.538 C 710.642 354.028 711.042 354.428 711.532 354.428 Z M 711.172 359.898 L 728.392 359.898 C 728.882 359.898 729.282 359.498 729.282 359.008 C 729.282 358.518 728.882 358.118 728.392 358.118 L 711.172 358.118 C 710.682 358.118 710.282 358.518 710.282 359.008 C 710.282 359.498 710.682 359.898 711.172 359.898 Z M 710.062 365.708 L 724.942 365.708 C 725.432 365.708 725.832 365.308 725.832 364.818 C 725.832 364.328 725.432 363.928 724.942 363.928 L 710.062 363.928 C 709.572 363.928 709.172 364.328 709.172 364.818 C 709.172 365.308 709.572 365.708 710.062 365.708 Z" class="cls-19" style="fill: rgb(51, 45, 40);"/>
        <path d="M 736.782 360.698 C 737.192 360.598 737.512 360.278 737.612 359.868 C 738.442 355.758 738.782 351.568 738.622 347.388 C 738.522 346.818 737.982 346.438 737.412 346.538 C 736.972 346.618 736.632 346.958 736.562 347.388 C 736.682 351.398 736.352 355.408 735.582 359.348 C 735.452 359.888 735.782 360.438 736.332 360.568 L 736.352 360.568 L 736.782 360.688 L 736.782 360.698 Z M 732.132 377.818 C 732.552 377.848 732.942 377.608 733.112 377.238 C 734.802 373.358 736.032 369.288 736.772 365.128 C 736.882 364.578 736.532 364.048 735.982 363.928 C 735.412 363.828 734.872 364.198 734.752 364.758 C 734.002 368.688 732.792 372.518 731.152 376.168 C 730.912 376.688 731.132 377.298 731.642 377.548 C 731.752 377.718 731.932 377.818 732.132 377.828 L 732.132 377.818 Z" class="cls-4" style="fill: rgb(255, 255, 255);"/>
        <path d="M 717.192 380.678 L 729.762 380.678 C 730.522 380.758 731.282 380.758 732.042 380.678 C 733.242 380.368 733.952 378.468 734.502 377.418 C 735.452 375.588 736.212 373.658 736.772 371.668 C 738.132 366.858 739.012 361.928 739.412 356.938 C 740.012 351.758 740.012 346.528 739.412 341.348 C 739.252 340.808 738.752 340.428 738.182 340.428 L 730.622 340.428 C 729.912 340.428 729.332 341.008 729.332 341.718 C 729.332 342.428 729.912 343.008 730.622 343.008 L 738.032 343.008 L 736.772 342.058 C 737.572 348.848 737.362 355.718 736.162 362.438 C 735.372 368.168 733.492 373.708 730.632 378.728 L 731.742 378.078 L 717.082 378.078 C 716.372 378.078 715.792 378.658 715.792 379.378 C 715.792 380.088 716.372 380.668 717.082 380.668 L 717.202 380.668 L 717.192 380.678 Z M 725.492 340.378 L 705.322 340.378 C 704.612 340.378 704.042 340.968 704.052 341.688 C 704.052 341.798 704.072 341.908 704.092 342.008 C 704.852 348.768 704.622 355.608 703.412 362.298 C 702.682 368.078 700.842 373.668 697.972 378.748 C 697.612 379.368 697.822 380.158 698.442 380.508 C 698.642 380.628 698.872 380.688 699.112 380.678 L 708.612 380.678 C 709.322 380.678 709.902 380.098 709.902 379.378 C 709.902 378.668 709.322 378.088 708.612 378.088 L 699.112 378.088 L 700.222 380.058 C 703.312 374.628 705.292 368.638 706.032 362.438 C 707.252 355.448 707.462 348.308 706.642 341.258 L 705.382 342.918 L 725.552 342.918 C 726.262 342.918 726.842 342.338 726.842 341.628 C 726.842 340.918 726.262 340.338 725.552 340.338 L 725.492 340.368 L 725.492 340.378 Z" class="cls-19" style="fill: rgb(51, 45, 40);"/>
        <path d="M 729.402 373.638 C 729.222 373.668 729.032 373.668 728.852 373.638 C 728.152 373.338 727.832 372.518 728.132 371.818 C 728.132 371.818 728.132 371.798 728.142 371.798 C 729.562 368.628 730.592 365.288 731.212 361.868 C 731.312 361.128 732.002 360.618 732.742 360.718 C 732.762 360.718 732.792 360.718 732.812 360.728 C 733.572 360.838 734.092 361.538 733.982 362.298 L 733.982 362.328 C 733.392 365.968 732.362 369.518 730.912 372.908 C 730.622 373.458 730.012 373.758 729.402 373.648 L 729.402 373.638 Z" class="cls-4" style="fill: rgb(255, 255, 255);"/>
        <path d="M 616.232 295.738 L 620.782 289.248 L 621.432 288.328 C 621.802 287.778 620.912 287.278 620.542 287.808 L 615.992 294.298 L 615.342 295.218 C 614.942 295.768 615.832 296.268 616.232 295.738 Z M 619.952 295.738 L 622.352 292.388 L 622.722 291.898 C 622.852 291.648 622.772 291.348 622.542 291.188 C 622.292 291.048 621.982 291.128 621.832 291.368 L 619.522 294.808 L 619.182 295.298 C 619.032 295.528 619.092 295.828 619.322 295.978 C 619.332 295.978 619.352 295.998 619.362 296.008 C 619.592 296.148 619.902 296.068 620.032 295.828 L 619.942 295.738 L 619.952 295.738 Z" class="cls-19" style="fill: rgb(51, 45, 40);"/>
      </g>
    </g>
  </g>
</svg>