<?xml version="1.0" encoding="utf-8"?>
<svg class="benefits-svg anim-svg-2 w-75 h-75" viewBox="0 0 708.67 889.65" xmlns="http://www.w3.org/2000/svg">
  <defs>
    <style>.cls-1{fill:#f57a59}.cls-2{fill:#f97c00}.cls-3{fill:#ebdeff}.cls-4{fill:#ea1859}.cls-5{fill:#fff}.cls-6{fill:#ffdab6}.cls-7{fill:#ea6e6e}.cls-8{fill:#ffb999}.cls-11{fill:#ffa744}.cls-12{fill:#fce6ed}.cls-14{fill:#ff859c}.cls-16{fill:#a02727}.cls-17{fill:#84ecff}.cls-19{fill:#b20040}.cls-20{fill:#c64f4f}.cls-21{fill:#acd9ea}.cls-23{fill:#e0f3fc}.cls-26{fill:#1e3c51}.cls-27{fill:#232144}.cls-31{fill:#29afd3}.cls-33{fill:#29fc97}.cls-34{fill:#2e4c64}.cls-36{fill:#77b7b6;isolation:isolate;opacity:.3}</style>
  </defs>
  <g id="Layer_2-2" data-name="Layer 2" transform="matrix(1.0000000000000002, 0, 0, 1.0000000000000002, 1.1368683772161603e-13, 0)">
    <g id="Layer_1-2" data-name="Layer 1-2">
      <path fill="#77b7b6" d="M189.2 853.19c35.45-4.47 68.35-16.72 104.35-20.61 44.02-4.76 79.76 21.86 117.73 32-5.57 7.72-42.51 13.56-56.12 16.29-20.73 4.18-44.6 8.3-66.98 8.77-33.62.7-56.3-13.7-81.99-24.97l3.63 1.77" opacity=".3"/>
      <path d="M48.18 211.9c-5.98 0-10.84-4.86-10.84-10.84s4.86-10.84 10.84-10.84 10.84 4.86 10.84 10.84-4.86 10.84-10.84 10.84Zm0-19.74c-4.91 0-8.9 3.99-8.9 8.9s3.99 8.9 8.9 8.9 8.9-3.99 8.9-8.9-3.99-8.9-8.9-8.9Z" class="cls-27"/>
      <path d="m109.85 147.78 76.59 38.03 28.57-57.08-79.35-37.51s-9.7 38.03-25.81 56.56Z" class="cls-36"/>
      <path d="m144.05 106.03-6.62 15.04 17.28 8.24 8.74-14.86-19.4-8.42z" class="cls-5"/>
      <path fill="#7f1212" d="M223.95 231.75c-5.26-5.26 4.18 14.63 10.25 18.93s14.02 5.72 21.31 4.21v-23.98s-31.27 1.16-31.56.84Z"/>
      <path d="M249.82 256.55c-5.86 0-11.65-1.74-16.25-4.99-6.49-4.59-10.59-12.18-10.71-19.8 0-.6.47-1.1 1.07-1.11.6-.03 1.1.47 1.11 1.07.11 6.94 3.86 13.86 9.79 18.06 5.66 4.01 13.3 5.51 20.46 4.03.59-.12 1.16.26 1.29.85.12.59-.26 1.17-.85 1.29-1.95.4-3.94.6-5.92.6Z" class="cls-27"/>
      <path d="m347.29 835.01.7 27.52c-.41 3.11.67 6.18 2.87 8.39 1.1 1.1 2.41 1.92 3.86 2.44 17.07 5.86 27.87 9.87 45.84 11.96l6.01.7 5.81.32 6.18-.46a88.169 88.169 0 0 0 25.84-7.23c2.58-5.63 1.31-12.31-3.22-16.52-9.87-9.17-29.41-24.42-57.11-32.23l-8.54-13.24c5.14 2.5 8.54 6.71 8.54 11.5 0 7.64-8.59 13.85-19.22 13.85s-19.22-6.21-19.22-13.85c0-4.15 2.53-7.87 6.56-10.42" class="cls-34"/>
      <path d="M445.51 872.87c0 2.03-.44 4.09-1.34 6.04-8.19 3.72-16.93 6.13-25.84 7.23l-6.18.46-5.84-.32-6.01-.7c-17.94-2.09-28.74-6.07-45.82-11.96-1.45-.49-2.79-1.34-3.86-2.41-2.21-2.21-3.28-5.31-2.87-8.39l-.2-8.51c9.73 8.77 27.64 15.21 48.4 16.35 17.94.99 34.2-2.24 45.15-8.1 2.87 2.76 4.41 6.53 4.41 10.34v-.03Z" class="cls-26"/>
      <path d="M228.83 814.92c-5.14 2.24-8.54 6.07-8.54 10.42 0 6.91 8.59 12.51 19.22 12.51s19.22-5.6 19.22-12.51c0-3.75-2.53-7.11-6.56-9.41l6.18 12.63 2.47 27.73c.35 3.83-.38 7.67-2.09 11.09l-.38.73a218.865 218.865 0 0 1-47.73 11.06l-15.65.49c-7.75-.96-15.33-3.05-22.44-6.27-2.24-4.91-1.13-10.68 2.82-14.37 8.33-7.75 24.59-20.44 47.56-27.41l5.95-16.67-.03-.03Z" class="cls-34"/>
      <path d="M239.8 841.52c-5.69 0-9.99-1.42-10.25-1.51a1.934 1.934 0 0 1-1.21-2.45 1.927 1.927 0 0 1 2.44-1.21c.09.03 8.87 2.91 17.31 0a1.92 1.92 0 0 1 2.45 1.2 1.92 1.92 0 0 1-1.2 2.45c-3.31 1.14-6.61 1.52-9.55 1.52ZM259.43 866.37l-.93 1.89c-15.45 5.46-31.07 9.35-47.33 11.24l-6.56.84-9.73-.23c-7.75-.96-15.1-3.37-22.21-6.56-.78-1.68-1.16-3.48-1.16-5.26 0-3.4 1.36-6.71 3.95-9.12.15-.12.26-.23.41-.38 13.24 7.03 32.87 10.1 54.15 7.37 11.44-1.45 22.01-4.41 31.04-8.42.26 2.96-.29 5.98-1.63 8.62Z" class="cls-26"/>
      <rect width="165.87" height="123.51" x="404.31" y="438.41" fill="#e0f3fc" opacity=".58" rx="7.96" ry="7.96" style="isolation:isolate"/>
      <path fill="#effdfd" d="m467 438.93-48.43 122.99 44.63.32 40.42-123.19h-.06s-35.36-.64-36.52-.15l-.03.03Z"/>
      <path fill="#232144" d="M514.29 193.93c-8.22 0-14.91-6.69-14.91-14.91s6.69-14.91 14.91-14.91 14.91 6.69 14.91 14.91-6.69 14.91-14.91 14.91Zm0-27.87c-7.15 0-12.96 5.82-12.96 12.96s5.82 12.96 12.96 12.96 12.96-5.82 12.96-12.96-5.82-12.96-12.96-12.96Z" opacity=".34" style="isolation:isolate"/>
      <path fill="#232144" d="M514.29 199.85c-11.49 0-20.83-9.35-20.83-20.83s9.35-20.83 20.83-20.83 20.83 9.35 20.83 20.83-9.35 20.83-20.83 20.83Zm0-39.72c-10.41 0-18.89 8.47-18.89 18.89s8.47 18.89 18.89 18.89 18.89-8.47 18.89-18.89-8.47-18.89-18.89-18.89Z" opacity=".54" style="isolation:isolate"/>
      <rect width="64.02" height="55.95" x="499.36" y="127.05" class="cls-5" rx="3.95" ry="3.95" transform="rotate(-16 531.356 155.007)"/>
      <path d="M89.85 292.43c-3.6-9.7-12.89-19.71-12.89-19.71l3.19 3.77 3.25-33.68-29.41-40.73-2.03-2.26c-2.03-2.26-2.67-1.54-2.67-1.54l-2.73.55c-2.44 1.77-1.63 5.49-1.63 5.49l1.71 4.21 14.14 28.95-5.34-1.77c-7.43 2.09-8.88 9.87-8.88 9.87v14.55s21.11 16.75 21.86 35.36l13.53 5.86 7.87-8.88.03-.03Z" class="cls-8"/>
      <path d="M70.36 296.61c-1.54 0-2.82-1.21-2.9-2.76-.88-18.31-19.45-31.2-19.64-31.33a2.908 2.908 0 0 1-1.27-2.36l-.17-14.55c0-.12 0-.24.02-.36.03-.3.91-7.43 7.81-10.13 1.5-.59 3.18.15 3.76 1.65.58 1.49-.15 3.18-1.65 3.76-3.24 1.27-4 4.51-4.13 5.25l.15 12.85c4.6 3.48 20.04 16.49 20.92 34.95.08 1.6-1.16 2.96-2.76 3.04h-.14Z" class="cls-1"/>
      <path d="M487.47 271.87c-10.92 28.37-62.8 82.92-62.8 82.92l.75.52c-44.63-30.4-102.58-51.04-118.37-56.38a26.06 26.06 0 0 0-8.3-1.36h-28.13l-28.71 10.28-37.08 30.69-36.96 24.59-76.65-72.44c-11.58 9.7-28.45 2.55-29.09 2.29l77.93 114.13h11.61c20.32 0 40.3-5.43 57.86-15.74l4.56-2.7v-10.02l5.84 77.61 10.34-9.7-18.73 18.76v20.21l9.38 8.57-12.19 10.68 3.46 22.62 3.89 1.57a186.615 186.615 0 0 0 69.57 13.44c24.97 0 49.94-5.02 73.34-15.01l10.02-18.76-1.71-8.94-6.04 3.48-.35-.81-2.26-9.9-7.55-6.91-1.16-1.68-3.34-54.61c0-.96.17-1.89.49-2.76l7.98-21.8c.32-.9.49-1.83.49-2.76v-24.3l86.43 22.24c5.2 1.34 10.63-1.07 13.09-5.84l57.14-109.49c-13.09-.49-24.74-12.6-24.74-12.6v-.09Z" style="fill: rgb(238, 255, 0);"/>
      <path d="M193.44 352.24a2.901 2.901 0 0 1-1.54-5.36l12.2-7.65 25.54-21.44a2.902 2.902 0 1 1 3.73 4.45l-25.7 21.57c-.1.09-.21.17-.32.24l-12.37 7.75c-.48.3-1.01.44-1.54.44Z" class="cls-14" style="fill: rgb(245, 245, 18);"/>
      <path d="M490.95 275.5v-56.12l18.79-42.53 2.24-2.35s4.41-3.63 7 0 .87 8.36.87 8.36l-1.57 3.02-14.4 31.68 2.64-5.49h12.46l4.04 3.22 8.42 12.28-1.95 16.17-11.64 16.49-11.29 23.87" class="cls-8" style="fill: rgb(238, 243, 175);"/>
      <path d="M493.16 254.04c-1.6 0-2.9-1.3-2.9-2.9V226.4c0-1.6 1.3-2.9 2.9-2.9s2.9 1.3 2.9 2.9v24.74c0 1.6-1.3 2.9-2.9 2.9Z" class="cls-12"/>
      <path d="M284.49 311.24c-7.4 0-15.07-6.3-13.41-13.41v-35.86h26.83l.38 36.21c0 10.19-.38 13.07-13.79 13.07Z" class="cls-8"/>
      <path d="M270.32 287.87s13.21 8.86 27.87 0v-17.59h-27.76s-.73 17.59-.12 17.59Z" class="cls-1"/>
      <path d="m350.46 808.19 5.11 18.58c.58 2.15 2.41 3.77 4.65 4.01 3.54.38 8.97.12 13.21-3.6 1.36-1.19 2-3.05 1.77-4.85l-2.29-16.64" class="cls-8"/>
      <path d="m347.06 793.18 5.11 18.58c.58 2.15 2.41 3.77 4.65 4.01 3.54.38 8.97.12 13.21-3.6 1.36-1.19 2-3.05 1.77-4.85l-2.29-16.64" class="cls-1"/>
      <path d="M233.27 809.23v14.69s7.78 5.49 15.53 0V808.3" class="cls-8"/>
      <path d="M233.27 799.54v14.69s7.78 5.49 15.53 0v-15.62" class="cls-1"/>
      <path d="M155.84 360.02c-.73 0-1.45-.27-2.02-.81l-54.29-52.38a2.894 2.894 0 0 1-.07-4.1 2.894 2.894 0 0 1 4.1-.07l54.29 52.38a2.894 2.894 0 0 1 .07 4.1c-.57.59-1.33.89-2.09.89Z" class="cls-14" style="fill: rgb(255, 253, 133);"/>
      <path d="M383.64 800.49c-25.2 16-40.27 4.85-40.27 4.85l-6.79-48.52-19.89-75.6-25.7-85.36-32.02 209.74c-33.45 12.14-43.64-6.53-43.64-6.53l2.44-268.68c44.19 16.35 96.48 16.55 140.06-1.6l25.81 271.7Z" class="cls-17"/>
      <path fill="#29afd3" d="M256.88 543.48c-6.42 59.93-7.64 188.9-14.23 266.21-21.02.49-27.32-10.63-27.32-10.63l2.53-269.23c19.28 7.14 18.81 13.12 39.02 13.68v-.03Z" opacity=".5" style="isolation:isolate"/>
      <path d="M134.68 397.99c-.93 0-1.84-.44-2.4-1.26l-60.8-88.9c-.91-1.32-.57-3.13.76-4.04s3.13-.57 4.04.76l60.8 88.9a2.9 2.9 0 0 1-.76 4.04c-.5.34-1.07.51-1.64.51Z" class="cls-4" style="fill: rgb(255, 255, 0);"/>
      <path d="M366.13 328.75c-.4 0-.8-.08-1.19-.26a649 649 0 0 0-19.86-8.53c-1.48-.61-2.2-2.3-1.59-3.79.61-1.48 2.3-2.2 3.79-1.59 6.46 2.64 13.2 5.53 20.04 8.6 1.46.66 2.12 2.38 1.46 3.84a2.898 2.898 0 0 1-2.65 1.72Z" class="cls-12"/>
      <path d="M212.22 380.17c-15.24 9.2-32.34 15.16-50.05 17.07-3.66.41-3.72 6.21 0 5.81 18.76-2.03 36.82-8.1 52.99-17.88 3.19-1.92.29-6.94-2.93-4.99Z" class="cls-4" style="fill: rgb(237, 246, 161);"/>
      <path d="M212.98 373.72a123.812 123.812 0 0 1-36.09 15.71c-3.6.93-2.09 6.5 1.54 5.57a128.86 128.86 0 0 0 37.48-16.29c3.14-2 .23-7.03-2.93-4.99Z" class="cls-4" style="fill: rgb(251, 236, 147);"/>
      <path d="M213.62 368.23a123.812 123.812 0 0 1-36.09 15.71c-3.6.93-2.09 6.5 1.54 5.57a128.86 128.86 0 0 0 37.48-16.29c3.14-2 .23-7.03-2.93-4.99Z" class="cls-4" style="fill: rgb(255, 238, 140);"/>
      <path d="m348.07 454.41 1.89 30.02 1.16 1.71 7.55 6.91 2.26 9.87.35.81 6.04-3.48 1.71 8.94-10.02 18.76a186.807 186.807 0 0 1-73.34 15.01c-23.6 0-47.24-4.47-69.57-13.44l-3.89-1.57-3.46-22.62 12.19-10.68-9.38-8.57-.17-20.38 8.48-8.51s-2.18-31.27-2.9-44.13c30.31 28.13 131.12 41.32 131.12 41.32l-.03.03Z" class="cls-4" style="paint-order: fill; fill-rule: evenodd; fill-opacity: 0.15; stroke-linecap: square; stroke-linejoin: round; stroke: rgb(66, 120, 107); fill: rgb(246, 188, 62);"/>
      <path d="M235.6 201.9c1.68 4.04 3.08 8.22 4.21 12.46 1.34 5.11 1.89 11.47-2.21 14.78-.55.44-1.16.81-1.86.9s-3.02 1.6-3.66 1.28c-4.94-2.41-4.5-10.6-7.96-14.87-1.42-1.74-3.22-3.14-4.56-4.94-1.71-2.29-1.89-4.88-2.58-7.66-2.79-11.03-4.62-23.11-1.22-33.97s12.14-20.56 23.34-22.62c.93-.17 1.92-.29 2.76-.73 2.35-1.16 3.31-3.57 4.33-5.98 2.12-5.08 9.81-10.86 15.24-11.93s4.85-.55 10.34-.49c3.66.03 10.86 3.08 13.27 6.04 1.77 2.18-2.38-.7.44-.7 18.7-.06 30.22 10.16 35.02 21.31 1.19 2.79 2.03 5.81 1.92 8.86-.17 4.38-.58 9.93-2.03 14.08 1.42 3.66 2.41 7.06 3.95 11.09 1.54 4.04-.12 8.25-3.05 11.41-1.54 1.63-1.6 3.28-3.75 3.98-26.42 8.65-55.86 9.49-79.41 24.3" class="cls-20"/>
      <path d="M268.75 214.7c-10.51 2.79-20.67 6.39-29.93 12.14-.26.35 0 1.28-.35 1.57-.55.44-3.11 2.44-3.8 2.5-.73.09-1.71-.64-2.38-.93-4.94-2.41-4.5-10.6-7.96-14.87-1.42-1.74-7.98 2.18-9.32.38-1.71-2.29-1.89-6.94-1.83-9.81.38-13.47-.64-26.28 2.79-37.11 3.34-10.63 12.19-18.49 23.02-20.85 2.85 2.26 4.82 3.34 6.45 6.62 4.36 8.74 1.97 19.13 2.93 28.83 1.28 12.92 9.23 24.88 20.35 31.56l.03-.03Z" class="cls-16"/>
      <path d="M318.14 197.43c6.1-.93 11.79 3.28 12.72 9.38.87 5.84-2.93 11.32-8.62 12.57" class="cls-8"/>
      <ellipse cx="222.71" cy="223.35" class="cls-8" rx="11.24" ry="12.86"/>
      <ellipse cx="225.26" cy="223.01" class="cls-1" rx="8.74" ry="9.99"/>
      <path d="m315.85 188.98 6.1 30.02c1.77 8.71 2.24 17.65.87 26.42-3.05 19.98-13.53 33.42-32.78 37.34-11 2.24-21.86-.99-31.07-6.85-13.41-8.51-22.44-22.47-25.61-38.03l-1.34-6.59s8.68-.15 9-9.2c.32-9.06-6.21-20.38-6.21-20.38l2.82 5.02 9.47-2.58 5.63-4.94 3.83-5.57 7.11 3.4 9.96-.61 7.26-4.7 5.89 6.21 9.7 2.26 8.71-3.16 10.66-8.07v.03Z" class="cls-8"/>
      <path d="M308.94 274.48c-4.91 4.18-11 7.08-18.41 8.59-2.38.49-4.76.7-7.11.7-8.51 0-16.75-2.96-23.95-7.55-13.38-8.51-22.44-22.47-25.58-38.03l-1.34-6.59s7.49-.15 8.8-7.43c5.78 26.68 13.21 36.96 23.66 44.63 10.92 8.01 22.7 7.87 31.18 7.87 2.35 0 4.73-.23 7.14-.73 1.97-.41 3.86-.9 5.63-1.51l-.03.06Z" class="cls-1"/>
      <path d="M300.69 200.4c-.45 0-.87-.28-1.02-.72-.2-.57.09-1.19.66-1.39.05-.02 5.34-1.96 10.57-6.96 6.97-6.67 10.55-15.36 10.63-25.82 0-.6.47-1.06 1.1-1.08.6 0 1.08.5 1.08 1.1-.21 26.5-22.42 34.73-22.64 34.81-.12.04-.24.06-.37.06ZM214.52 215.36c-.47 0-.9-.31-1.04-.78-1.34-4.53-3.24-14.72-.88-32.1.08-.6.63-1.02 1.23-.93.6.08 1.01.63.93 1.23-2.31 16.98-.49 26.83.81 31.19.17.58-.16 1.18-.73 1.35-.1.03-.21.04-.31.04Z" class="cls-27"/>
      <path d="M222.71 237.31c-6.8 0-12.33-6.26-12.33-13.95s5.53-13.95 12.33-13.95 12.32 6.26 12.32 13.95-5.53 13.95-12.32 13.95Zm0-25.72c-5.6 0-10.15 5.28-10.15 11.77s4.55 11.77 10.15 11.77 10.15-5.28 10.15-11.77-4.55-11.77-10.15-11.77Z" class="cls-27"/>
      <path d="M220.09 230.35c-.36 0-.7-.19-.88-.53-4.61-8.82 1.4-13.94 1.47-13.99a.985.985 0 0 1 1.39.13c.35.42.29 1.04-.13 1.39-.21.17-4.83 4.2-.98 11.56a.982.982 0 0 1-.88 1.44Z" class="cls-27"/>
      <path d="M224.42 226.55c-.33 0-.65-.16-.84-.46-1.77-2.83-4.87-2.71-5-2.7-.54.04-1.01-.39-1.04-.93a.984.984 0 0 1 .92-1.04c.18 0 4.39-.22 6.79 3.63a.988.988 0 0 1-.83 1.51ZM324.85 210.13c-.46 0-.85-.37-.86-.84 0-.11-.11-2.83-2.67-4.13a.849.849 0 0 1-.37-1.15c.21-.42.73-.59 1.15-.37 3.5 1.78 3.6 5.47 3.6 5.63 0 .47-.37.86-.84.87h-.02Z" class="cls-27"/>
      <path d="M322.23 220.47c-.5 0-.95-.35-1.06-.86-.13-.59.24-1.17.83-1.3 5.14-1.13 8.56-6.11 7.78-11.35-.84-5.5-5.98-9.3-11.48-8.46-.59.09-1.15-.32-1.24-.91-.09-.59.32-1.15.91-1.24 3.23-.5 6.47.31 9.11 2.25 2.63 1.94 4.36 4.8 4.85 8.04.95 6.37-3.21 12.43-9.47 13.8a.97.97 0 0 1-.23.03Z" class="cls-27"/>
      <path d="M323.6 199.07c-.11 0-.23-.02-.34-.05-.57-.19-.88-.8-.69-1.38 3.43-10.4-2.89-17.38-3.16-17.67a1.09 1.09 0 0 1 .06-1.54 1.09 1.09 0 0 1 1.54.05c.31.33 7.48 8.18 3.64 19.84-.15.46-.58.75-1.03.75ZM270.73 302.86c-.6 0-1.09-.49-1.09-1.09v-20.29c0-.6.49-1.09 1.09-1.09s1.09.49 1.09 1.09v20.29c0 .6-.49 1.09-1.09 1.09ZM286.73 312.75c-5.91 0-11.63-2.73-15.06-7.25a.963.963 0 0 1 .19-1.36.971.971 0 0 1 1.36.19c3.15 4.15 8.72 6.68 14.19 6.47 4.12-.16 7.52-1.87 9.33-4.69a.97.97 0 0 1 1.63 1.05c-2.16 3.36-6.13 5.39-10.89 5.58-.25.01-.5.02-.76.02ZM298.28 302.86c-.6 0-1.09-.49-1.09-1.09v-20.29c0-.6.49-1.09 1.09-1.09s1.09.49 1.09 1.09v20.29c0 .6-.49 1.09-1.09 1.09Z" class="cls-27"/>
      <path d="M434.74 363.52c-.23 0-.45-.07-.65-.22-11.4-8.5-54.26-38.15-127.24-62.73a25.13 25.13 0 0 0-7.98-1.31h-.58c-.6 0-1.09-.49-1.09-1.09s.49-1.09 1.09-1.09h.58c2.93 0 5.85.48 8.68 1.42 7.82 2.63 28.65 9.94 53.16 20.9 30.12 13.47 55.26 27.65 74.69 42.15.48.36.58 1.04.22 1.52-.21.29-.54.44-.87.44Z" class="cls-27"/>
      <path d="M445.03 401.86c-1.05 0-2.12-.13-3.19-.41l-86.43-22.21a1.09 1.09 0 1 1 .55-2.11l86.43 22.21c4.74 1.22 9.61-.96 11.86-5.28l56.34-108.02c-10.38-1.11-19.43-8.7-22.6-11.66-4.98 11.84-16.76 28.94-35.06 50.88-14.19 17.01-27.22 30.74-27.35 30.88a1.09 1.09 0 0 1-1.58-1.5c.52-.54 51.86-54.72 62.57-82.56.13-.35.44-.6.8-.68.37-.07.74.04 1 .31.11.12 11.5 11.82 23.99 12.27.37.01.71.22.9.54s.2.72.02 1.05l-57.11 109.49a12.514 12.514 0 0 1-11.14 6.79Z" class="cls-27" style="fill: rgb(0, 0, 0);"/>
      <path d="M 350.11 488.42 C 349.536 488.416 349.062 487.972 349.02 487.4 L 345.59 431.1 C 345.59 429.98 345.78 428.9 346.15 427.9 L 354.13 406.1 C 354.41 405.34 354.56 404.51 354.56 403.72 L 354.56 367.08 C 354.56 366.48 355.05 365.99 355.65 365.99 C 356.25 365.99 356.74 366.48 356.74 367.08 L 356.74 403.72 C 356.74 404.77 356.55 405.85 356.18 406.85 L 348.2 428.65 C 347.92 429.41 347.77 430.24 347.77 431.03 L 351.19 487.26 C 351.23 487.86 350.77 488.38 350.17 488.41 L 350.1 488.41 L 350.11 488.42 Z M 190.3 349.96 C 189.95 349.96 189.6 349.79 189.39 349.47 C 189.06 348.97 189.19 348.29 189.69 347.96 L 204.28 338.27 L 241.31 307.62 C 241.41 307.54 241.52 307.48 241.64 307.43 L 270.35 297.15 C 271.139 296.869 271.936 297.548 271.785 298.371 C 271.715 298.754 271.446 299.07 271.08 299.2 L 242.55 309.41 L 205.62 339.98 C 205.62 339.98 205.56 340.03 205.53 340.05 L 190.9 349.78 C 190.71 349.9 190.51 349.96 190.3 349.96 L 190.3 349.96 Z M 151.78 408.81 L 140.17 408.81 C 139.81 408.81 139.47 408.63 139.27 408.34 L 61.34 294.21 C 61.07 293.81 61.09 293.28 61.4 292.9 C 61.71 292.53 62.23 292.4 62.68 292.6 C 62.85 292.67 79.51 299.81 90.64 290.5 C 91.06 290.15 91.69 290.16 92.09 290.54 L 168.08 362.36 L 184.98 351.11 C 185.48 350.78 186.16 350.91 186.49 351.41 C 186.82 351.91 186.69 352.59 186.19 352.92 L 168.57 364.65 C 168.148 364.928 167.591 364.882 167.22 364.54 L 91.29 292.78 C 82.22 299.73 70.61 297.47 65.05 295.76 L 140.76 406.65 L 151.8 406.65 C 171.93 406.65 191.74 401.26 209.08 391.06 L 213.67 388.36 C 214.19 388.06 214.86 388.23 215.16 388.75 C 215.46 389.27 215.29 389.94 214.77 390.24 L 210.18 392.94 C 192.478 403.339 172.321 408.824 151.79 408.83 L 151.78 408.81 Z M 363.03 587.83 C 362.47 587.83 362 587.41 361.95 586.84 L 357.01 534.23 C 356.929 533.395 357.783 532.785 358.547 533.133 C 358.901 533.294 359.142 533.632 359.18 534.02 L 364.12 586.63 C 364.18 587.23 363.74 587.76 363.14 587.82 L 363.04 587.82 L 363.03 587.83 Z M 371.5 678.74 C 370.94 678.74 363.16 594.74 363.76 594.68 C 364.35 594.63 364.89 595.06 364.95 595.66 L 372.59 677.54 C 372.65 678.14 372.21 678.67 371.61 678.73 L 371.51 678.73 L 371.5 678.74 Z M 357.35 810.09 C 348.04 810.09 342.77 806.32 342.4 806.05 C 342.17 805.88 342.01 805.62 341.97 805.33 L 335.18 756.91 L 315.31 681.37 L 291.02 600.69 L 277.4 691.39 C 277.31 691.98 276.75 692.39 276.16 692.31 C 275.57 692.22 275.16 691.67 275.24 691.07 L 289.58 595.58 C 289.66 595.08 290.07 594.69 290.58 594.66 C 291.1 594.63 291.55 594.94 291.7 595.43 L 317.4 680.79 L 337.3 756.43 C 337.3 756.43 337.32 756.51 337.33 756.56 L 344.06 804.56 C 345.14 805.23 348.58 807.12 353.99 807.71 C 360 808.36 369.74 807.5 382.14 799.79 L 371.26 686.85 C 371.179 686.015 372.033 685.405 372.797 685.753 C 373.151 685.914 373.392 686.252 373.43 686.64 L 384.38 800.25 C 384.42 800.66 384.23 801.05 383.88 801.27 C 373.11 808.11 364.15 810.12 357.36 810.12 L 357.35 810.09 Z M 238.06 810.61 C 231.82 810.61 227.14 809.27 223.82 807.72 C 216.85 804.46 214.16 799.65 214.05 799.45 C 213.96 799.28 213.91 799.1 213.92 798.91 L 215.75 698.68 C 215.76 698.08 216.23 697.6 216.86 697.61 C 217.46 697.62 217.94 698.12 217.93 698.72 L 216.11 798.64 C 217.44 800.78 227.71 815.25 257.68 804.65 L 273.75 701 C 273.84 700.41 274.4 700 274.99 700.09 C 275.58 700.18 275.99 700.74 275.9 701.33 L 259.73 805.62 C 259.67 806.01 259.4 806.34 259.02 806.48 C 250.65 809.51 243.71 810.61 238.06 810.61 L 238.06 810.61 Z M 216.58 691.46 C 215.98 691.46 215.49 690.97 215.5 690.37 L 215.59 674.52 C 215.59 673.92 216.08 673.44 216.68 673.44 C 217.28 673.44 217.77 673.93 217.76 674.53 L 217.67 690.38 C 217.67 690.98 217.18 691.46 216.58 691.46 Z M 216.58 668.37 C 215.98 668.37 215.5 667.87 215.5 667.27 L 216.66 531.45 C 216.66 530.85 217.15 530.37 217.75 530.37 C 218.35 530.37 218.83 530.87 218.83 531.47 L 217.67 667.29 C 217.67 667.89 217.18 668.37 216.58 668.37 Z M 295.7 587.8 C 295.49 587.8 295.28 587.73 295.1 587.59 L 274.08 571.1 C 273.846 570.913 273.71 570.63 273.71 570.33 L 273.71 537.35 C 273.71 536.81 274.15 536.38 274.68 536.38 C 275.21 536.38 275.65 536.82 275.65 537.35 L 275.65 569.86 L 296.3 586.06 C 296.72 586.39 296.8 587 296.46 587.43 C 296.27 587.67 295.98 587.8 295.69 587.8 L 295.7 587.8 Z" class="cls-27" style="fill: rgb(62, 68, 33);"/>
      <path d="M283.07 556.91a.97.97 0 0 1-.97-.97v-3.72c0-.54.44-.97.97-.97s.97.44.97.97v3.72c0 .54-.44.97-.97.97ZM283.07 566.75a.97.97 0 0 1-.97-.97v-3.69c0-.54.44-.97.97-.97s.97.44.97.97v3.69c0 .54-.44.97-.97.97ZM366.19 576.48c-10.3 0-17.93-2.73-22.68-8.12-6.18-7.02-5.13-15.88-5.09-16.26.07-.53.55-.91 1.09-.84.53.07.91.55.84 1.09-.01.08-.97 8.4 4.63 14.74 4.37 4.94 11.5 7.45 21.2 7.45.54 0 .97.44.97.97s-.44.97-.97.97ZM212.05 576.48c-.54 0-.97-.44-.97-.97s.44-.97.97-.97c9.71 0 16.85-2.51 21.22-7.47 5.61-6.36 4.63-14.64 4.62-14.72a.977.977 0 0 1 .84-1.09.978.978 0 0 1 1.09.84c.05.37 1.09 9.24-5.09 16.26-4.75 5.39-12.38 8.12-22.68 8.12ZM362.53 831.87c-.92 0-1.74-.05-2.43-.13-2.59-.27-4.79-2.17-5.48-4.72l-5.11-18.58a.98.98 0 0 1 .68-1.2.972.972 0 0 1 1.2.68l5.11 18.58c.48 1.79 2.01 3.11 3.81 3.3 2.87.31 8.32.28 12.47-3.36 1.09-.95 1.64-2.48 1.45-3.99l-2.29-16.63c-.07-.53.3-1.02.83-1.1a.99.99 0 0 1 1.1.83l2.29 16.64c.28 2.16-.52 4.34-2.1 5.71-3.69 3.23-8.21 3.96-11.53 3.96ZM241.38 827.32c-4.9 0-8.61-2.56-8.67-2.6a.963.963 0 0 1-.41-.79v-14.69c0-.54.44-.97.97-.97s.97.44.97.97v14.16c1.6.97 7.53 3.99 13.59.02v-15.11c0-.54.44-.97.97-.97s.97.44.97.97v15.62c0 .32-.15.61-.41.79-2.75 1.95-5.52 2.6-7.99 2.6ZM285.88 317.44c-11.2 0-20.31-7.64-20.31-17.03 0-.54.44-.97.97-.97s.97.44.97.97c0 8.32 8.24 15.08 18.36 15.08s18.36-6.77 18.36-15.08v-.87c0-.54.44-.97.97-.97s.97.44.97.97v.87c0 9.39-9.11 17.03-20.31 17.03ZM506.51 285.12c-.14 0-.28-.03-.42-.09a.963.963 0 0 1-.46-1.29l11.29-23.9c.02-.05.05-.1.08-.15l11.5-16.29 1.87-15.54-8.13-11.89-3.66-2.92h-12.09c-.54 0-.97-.44-.97-.97s.44-.97.97-.97h12.43c.22 0 .43.08.61.21l4.04 3.22c.08.06.14.13.2.21l8.42 12.31c.13.19.19.43.16.67l-1.95 16.14c-.02.16-.08.31-.17.44l-11.59 16.42-11.26 23.82c-.17.35-.52.56-.88.56ZM490.95 276.47a.97.97 0 0 1-.97-.97v-56.12c0-.14.03-.27.08-.39l18.79-42.54a.98.98 0 0 1 1.28-.5c.49.22.71.79.5 1.28l-18.7 42.35v55.92c0 .54-.44.97-.97.97Z" class="cls-27"/>
      <path d="M503.87 218.55c-.13 0-.27-.03-.4-.09a.965.965 0 0 1-.48-1.29l14.4-31.68c.22-.49.8-.71 1.29-.48.49.22.71.8.48 1.29l-14.4 31.68c-.16.36-.52.57-.89.57ZM519.81 183.85a.971.971 0 0 1-.91-1.31c.01-.04 1.5-4.31-.75-7.47-.5-.7-1.08-1.08-1.8-1.18-1.79-.25-3.77 1.35-3.79 1.37a.97.97 0 0 1-1.37-.14.978.978 0 0 1 .13-1.37c.11-.09 2.64-2.15 5.27-1.79 1.26.17 2.32.83 3.13 1.98 2.85 4 1.07 9.04.99 9.26-.14.4-.52.64-.91.64ZM474.78 516.99H433c-.54 0-.97-.44-.97-.97s.44-.97.97-.97h41.78c.54 0 .97.44.97.97s-.44.97-.97.97ZM458.96 522.8H433c-.54 0-.97-.44-.97-.97s.44-.97.97-.97h25.96c.54 0 .97.44.97.97s-.44.97-.97.97ZM458.96 528.63H433c-.54 0-.97-.44-.97-.97s.44-.97.97-.97h25.96c.54 0 .97.44.97.97s-.44.97-.97.97ZM433 510.57a.979.979 0 0 1-.98-.97v-39.57c0-.35.19-.67.49-.84s.67-.17.97 0l34.26 19.8c.3.17.49.5.49.84 0 .35-.19.67-.49.84l-34.26 19.77c-.15.09-.32.13-.49.13Zm.97-38.86v36.2l31.34-18.09-31.34-18.12ZM416.36 448.72c-1.78 0-3.22-1.45-3.22-3.22s1.45-3.22 3.22-3.22 3.22 1.45 3.22 3.22-1.45 3.22-3.22 3.22Zm0-4.99c-.98 0-1.77.79-1.77 1.77s.79 1.77 1.77 1.77 1.77-.79 1.77-1.77-.79-1.77-1.77-1.77ZM426.32 448.72c-1.78 0-3.22-1.45-3.22-3.22s1.45-3.22 3.22-3.22 3.22 1.45 3.22 3.22-1.45 3.22-3.22 3.22Zm0-4.99c-.98 0-1.77.79-1.77 1.77s.79 1.77 1.77 1.77 1.77-.79 1.77-1.77-.79-1.77-1.77-1.77ZM436.48 448.72c-1.78 0-3.22-1.45-3.22-3.22s1.45-3.22 3.22-3.22 3.22 1.45 3.22 3.22-1.45 3.22-3.22 3.22Zm0-4.99c-.98 0-1.77.79-1.77 1.77s.79 1.77 1.77 1.77 1.77-.79 1.77-1.77-.79-1.77-1.77-1.77ZM239.52 838.83c-11.13 0-20.19-6.05-20.19-13.49 0-4.6 3.41-8.83 9.12-11.31a.968.968 0 0 1 1.28.5.976.976 0 0 1-.5 1.28c-4.98 2.17-7.95 5.73-7.95 9.53 0 6.36 8.19 11.54 18.25 11.54s18.25-5.18 18.25-11.54c0-3.25-2.21-6.37-6.07-8.56a.981.981 0 0 1-.37-1.33c.26-.47.86-.63 1.33-.37 4.48 2.55 7.05 6.29 7.05 10.25 0 7.44-9.06 13.49-20.19 13.49Z" class="cls-27"/>
      <path d="M194.98 880.7h-.13c-7.96-.98-15.61-3.12-22.76-6.36-.24-.11-.43-.3-.54-.54-2.45-5.36-1.22-11.62 3.07-15.6 7.82-7.27 24.45-20.54 47.98-27.65.58-.18 1.18.15 1.36.73.17.58-.15 1.18-.73 1.36-23.11 6.98-39.45 20.02-47.13 27.16-3.5 3.24-4.57 8.31-2.73 12.72 6.84 3.05 14.15 5.07 21.75 6.01.6.07 1.02.62.95 1.21-.07.55-.54.96-1.08.96ZM210.6 880.23c-.55 0-1.02-.41-1.08-.96-.07-.6.36-1.14.96-1.21 15.99-1.85 31.82-5.5 47.07-10.86a22.68 22.68 0 0 0 2.08-11.66l-2.38-26.91a1.088 1.088 0 1 1 2.17-.19l2.38 26.91c.4 4.56-.47 9.13-2.49 13.21-.13.25-.35.45-.61.54a220.272 220.272 0 0 1-47.97 11.12h-.13Zm47.73-12.15Z" class="cls-27"/>
      <g opacity=".58">
        <circle cx="119.98" cy="579.69" r="32.98" class="cls-23"/>
        <path d="M118.04 593.71c-.75 0-1.51-.2-2.18-.58l-16.49-9.7c-2.03-1.19-2.73-3.83-1.51-5.86 1.19-2.03 3.83-2.73 5.86-1.51l12.69 7.46 10.95-19.77c1.16-2.06 3.77-2.82 5.84-1.68 2.06 1.16 2.82 3.77 1.68 5.84l-13.09 23.6c-.55 1.02-1.51 1.74-2.61 2.06-.38.09-.75.15-1.13.15Z" class="cls-23"/>
      </g>
      <path d="M119.43 595.57c-.75 0-1.51-.2-2.18-.58l-16.49-9.7c-2.03-1.19-2.73-3.83-1.51-5.86 1.19-2.03 3.83-2.73 5.86-1.51l12.69 7.46 10.95-19.77c1.16-2.06 3.77-2.82 5.84-1.68 2.06 1.16 2.82 3.77 1.68 5.84l-13.09 23.6c-.55 1.02-1.51 1.74-2.61 2.06-.38.09-.75.15-1.13.15Z" class="cls-17"/>
      <path d="M91.09 572.2a2.897 2.897 0 0 1-2.71-3.94c.09-.23 9.12-23.14 33.62-22.25 1.6.06 2.85 1.41 2.79 3.01-.06 1.6-1.4 2.85-3.01 2.79-20.36-.78-27.91 18.33-27.99 18.52a2.895 2.895 0 0 1-2.71 1.87Z" class="cls-5"/>
      <path d="M119.98 613.65c-18.72 0-33.96-15.23-33.96-33.96s15.23-33.96 33.96-33.96 33.96 15.23 33.96 33.96-15.23 33.96-33.96 33.96Zm0-65.97c-17.65 0-32.01 14.36-32.01 32.01s14.36 32.01 32.01 32.01 32.01-14.36 32.01-32.01-14.36-32.01-32.01-32.01Z" class="cls-27"/>
      <path d="M119.75 596.4c-.92 0-1.84-.24-2.66-.71l-16.51-9.71a5.227 5.227 0 0 1-2.43-3.23c-.35-1.36-.14-2.77.58-3.98a5.192 5.192 0 0 1 3.22-2.42c1.36-.35 2.77-.14 3.98.58l11.82 6.95 10.46-18.9c1.42-2.53 4.63-3.45 7.16-2.07 2.53 1.43 3.45 4.63 2.07 7.16l-13.1 23.61c-.65 1.2-1.82 2.13-3.19 2.52-.55.13-.99.18-1.4.18Zm-16.49-18.26a3.268 3.268 0 0 0-2.85 1.63c-.46.76-.58 1.65-.37 2.5.22.86.76 1.59 1.53 2.03l16.49 9.7c.51.29 1.1.45 1.68.45.27 0 .56-.04.91-.12.83-.24 1.57-.82 1.98-1.58l13.1-23.61c.87-1.59.29-3.62-1.31-4.52-1.58-.87-3.61-.28-4.51 1.31l-11.43 20.64-13.55-7.97c-.52-.31-1.09-.47-1.68-.47Z" class="cls-27"/>
      <circle cx="389.13" cy="176.67" r="32.98" class="cls-33"/>
      <path fill="#9cf7c9" d="M422.11 177.66c0 12.31-6.71 23.02-16.67 28.69 3.8-5.37 6.01-11.93 6.01-18.99 0-18.23-14.78-32.98-32.98-32.98-5.92 0-11.5 1.57-16.29 4.3 5.95-8.48 15.79-14.02 26.97-14.02 18.23 0 32.98 14.78 32.98 32.98l-.03.03Z"/>
      <path d="M387.18 190.69c-.75 0-1.51-.2-2.18-.58l-16.49-9.7c-2.03-1.19-2.73-3.83-1.51-5.86 1.19-2.03 3.83-2.73 5.86-1.51l12.69 7.46 10.95-19.77c1.16-2.06 3.77-2.82 5.84-1.68 2.06 1.16 2.82 3.77 1.68 5.84l-13.09 23.6c-.55 1.02-1.51 1.74-2.61 2.06-.38.09-.75.15-1.13.15Z" class="cls-33"/>
      <path d="M388.58 192.55c-.75 0-1.51-.2-2.18-.58l-16.49-9.7c-2.03-1.19-2.73-3.83-1.51-5.86 1.19-2.03 3.83-2.73 5.86-1.51l12.69 7.46 10.95-19.77c1.16-2.06 3.77-2.82 5.84-1.68 2.06 1.16 2.82 3.77 1.68 5.84l-13.09 23.6c-.55 1.02-1.51 1.74-2.61 2.06-.38.09-.75.15-1.13.15ZM360.27 169.18a2.897 2.897 0 0 1-2.71-3.94c.09-.23 9.13-23.16 33.62-22.24 1.6.06 2.85 1.41 2.79 3.01a2.88 2.88 0 0 1-3.01 2.79c-20.35-.76-27.91 18.33-27.99 18.52a2.895 2.895 0 0 1-2.71 1.87Z" class="cls-5"/>
      <path d="M389.13 210.62c-18.72 0-33.96-15.23-33.96-33.96s15.23-33.96 33.96-33.96 33.96 15.23 33.96 33.96-15.23 33.96-33.96 33.96Zm0-65.97c-17.65 0-32.01 14.36-32.01 32.01s14.36 32.01 32.01 32.01 32.01-14.36 32.01-32.01-14.36-32.01-32.01-32.01Z" class="cls-27"/>
      <path d="M388.9 193.38c-.92 0-1.84-.24-2.66-.71l-16.51-9.71a5.227 5.227 0 0 1-2.43-3.23c-.35-1.36-.14-2.77.58-3.97a5.192 5.192 0 0 1 3.22-2.42c1.36-.35 2.78-.14 3.98.58l11.82 6.95 10.46-18.9c1.42-2.53 4.63-3.45 7.15-2.07 2.53 1.43 3.45 4.63 2.07 7.16l-13.1 23.61c-.65 1.2-1.82 2.13-3.19 2.52-.55.13-.99.18-1.4.18Zm-16.48-18.26a3.268 3.268 0 0 0-2.85 1.63c-.46.76-.58 1.65-.37 2.5.22.86.76 1.59 1.53 2.03l16.49 9.7c.51.29 1.1.45 1.68.45.26 0 .56-.04.91-.12.83-.24 1.57-.82 1.98-1.58l13.1-23.61c.87-1.59.29-3.62-1.31-4.52-1.58-.87-3.61-.28-4.51 1.31l-11.43 20.64-13.55-7.97c-.52-.31-1.09-.47-1.68-.47ZM68.45 296.45a.97.97 0 0 1-.97-.93c-.73-17.99-21.29-34.48-21.5-34.64a.982.982 0 0 1-.37-.76v-14.55c0-.06 0-.12.02-.18.06-.34 1.65-8.37 9.57-10.63a.966.966 0 0 1 1.2.67.966.966 0 0 1-.67 1.2c-6.39 1.82-8 8.25-8.18 9.04v13.98c1.3 1.08 5.8 4.93 10.43 10.54 5 6.06 11.04 15.35 11.44 25.25.02.54-.4.99-.93 1.01h-.04ZM89.85 293.4c-.39 0-.76-.24-.91-.63-3.52-9.41-12.6-19.3-12.69-19.39a.975.975 0 0 1 .05-1.37.975.975 0 0 1 1.37.05c.38.41 9.43 10.27 13.09 20.03a.974.974 0 0 1-.91 1.31Z" class="cls-27"/>
      <path d="M80.15 277.46h-.09a.982.982 0 0 1-.88-1.06l3.22-33.31-29.17-40.44a.975.975 0 0 1 1.58-1.14l29.38 40.73c.14.19.2.43.18.66l-3.25 33.68c-.05.5-.47.88-.97.88ZM60.78 238.44c-.36 0-.71-.2-.87-.55L45.8 208.97a.962.962 0 0 1 .45-1.3.97.97 0 0 1 1.3.45l14.11 28.92c.24.48.04 1.07-.45 1.3-.14.07-.28.1-.43.1ZM44.96 205.31c-.45 0-.85-.31-.95-.76-.04-.18-.92-4.36 2-6.48a.967.967 0 0 1 1.36.22c.32.43.22 1.04-.22 1.36-1.9 1.38-1.25 4.46-1.25 4.49a.986.986 0 0 1-.74 1.16c-.07.02-.14.02-.21.02ZM51.96 200.78a.96.96 0 0 1-.73-.33c-.87-.98-1.36-1.24-1.53-1.3-.35.16-.77.11-1.07-.17a.967.967 0 0 1-.06-1.37c.09-.1.46-.41 1.08-.42.87 0 1.87.66 3.04 1.98.36.4.32 1.02-.08 1.37a1 1 0 0 1-.64.24ZM50 198.93Zm0 0Z" class="cls-27"/>
      <path d="m157.47 171.422 28.69-56.066 6.49 3.321-28.69 56.066zM167.551 175.976l28.69-56.066 6.49 3.32-28.69 56.067z" class="cls-5"/>
      <path d="M186.44 187.03c-.18 0-.37-.04-.54-.13l-76.59-38.03c-.34-.17-.58-.48-.65-.85-.07-.37.03-.75.28-1.04 15.74-18.09 25.45-55.68 25.55-56.06a1.221 1.221 0 0 1 1.7-.8l79.35 37.51c.3.14.52.39.63.7.11.31.08.65-.06.94l-28.57 57.08c-.21.43-.64.67-1.09.67Zm-74.66-39.65 74.11 36.8 27.47-54.88-76.9-36.35c-.85 3.1-3.1 10.93-6.52 20.03-5.64 15.04-11.75 26.6-18.15 34.4Z" class="cls-27"/>
      <path d="M 154.71 130.29 C 154.57 130.29 154.43 130.26 154.29 130.2 L 137.02 121.95 C 136.549 121.72 136.342 121.161 136.55 120.68 L 143.17 105.64 C 143.389 105.152 143.958 104.929 144.45 105.14 L 163.84 113.56 C 164.1 113.67 164.29 113.89 164.38 114.15 C 164.47 114.42 164.43 114.7 164.29 114.94 L 155.55 129.81 C 155.377 130.11 155.056 130.293 154.71 130.29 Z M 138.71 120.6 L 154.33 128.06 L 162.06 114.91 L 144.56 107.31 L 138.71 120.6 Z M 172.33 148.29 C 172.19 148.29 172.04 148.26 171.9 148.19 L 135.38 130.19 C 134.71 129.859 134.65 128.927 135.272 128.513 C 135.56 128.32 135.929 128.296 136.24 128.45 L 172.76 146.45 C 173.43 146.78 173.491 147.712 172.87 148.126 C 172.71 148.233 172.522 148.29 172.33 148.29 Z M 148.73 142.1 C 148.59 142.1 148.45 142.07 148.31 142 L 133.44 134.89 C 132.956 134.656 132.751 134.076 132.98 133.59 C 133.21 133.1 133.79 132.9 134.28 133.13 L 149.15 140.24 C 149.63 140.47 149.84 141.05 149.61 141.54 C 149.44 141.89 149.09 142.09 148.73 142.09 L 148.73 142.1 Z M 161.82 155.87 C 161.68 155.87 161.54 155.84 161.4 155.77 L 129.58 140.56 C 129.096 140.326 128.891 139.746 129.12 139.26 C 129.35 138.77 129.93 138.57 130.42 138.8 L 162.24 154.01 C 162.72 154.24 162.93 154.82 162.7 155.31 C 162.53 155.66 162.18 155.86 161.82 155.86 L 161.82 155.87 Z M 255.05 183.64 C 254.99 186.28 256.47 188.87 258.8 190.11 C 259.61 190.55 260.34 189.3 259.53 188.86 C 257.61 187.81 256.45 185.75 256.51 183.63 C 256.51 182.7 255.09 182.7 255.06 183.63 L 255.05 183.64 Z M 312.68 184.83 C 313.14 184.16 313.52 183.41 313.75 182.62 C 313.87 182.27 313.6 181.81 313.26 181.72 C 312.85 181.63 312.51 181.84 312.36 182.21 C 312.3 182.44 312.21 182.65 312.13 182.85 L 312.22 182.68 C 312.02 183.17 311.76 183.64 311.44 184.07 C 311.32 184.22 311.32 184.48 311.35 184.62 C 311.38 184.76 311.52 184.97 311.67 185.06 C 311.84 185.15 312.05 185.21 312.22 185.15 C 312.39 185.09 312.54 184.98 312.66 184.83 L 312.69 184.83 L 312.68 184.83 Z M 221.52 168.13 C 220.5 169.47 219.72 170.98 219.31 172.6 C 219.22 172.98 219.43 173.41 219.8 173.5 C 220.17 173.59 220.58 173.38 220.7 173.01 C 220.79 172.63 220.9 172.28 221.02 171.91 C 221.08 171.74 221.17 171.56 221.22 171.39 C 221.16 171.51 221.28 171.24 221.28 171.24 C 221.31 171.15 221.34 171.09 221.4 171.01 C 221.57 170.69 221.75 170.34 221.92 170.05 C 222.01 169.88 222.12 169.73 222.24 169.56 C 222.3 169.47 222.36 169.41 222.41 169.33 C 222.41 169.33 222.58 169.1 222.53 169.18 C 222.76 168.89 222.85 168.45 222.53 168.16 C 222.27 167.93 221.75 167.84 221.51 168.16 L 221.51 168.13 L 221.52 168.13 Z M 220.91 201.93 C 218.66 193.885 218.099 185.462 219.26 177.19 C 219.38 176.29 217.98 175.88 217.87 176.81 C 216.645 185.339 217.207 194.03 219.52 202.33 C 219.78 203.23 221.17 202.85 220.91 201.95 L 220.91 201.92 L 220.91 201.93 Z M 511.12 190.8 C 510.3 190.8 509.49 190.59 508.76 190.19 C 507.614 189.565 506.767 188.506 506.41 187.25 L 493.01 141.1 C 492.64 139.84 492.79 138.51 493.42 137.36 C 494.045 136.214 495.104 135.367 496.36 135.01 L 550.26 119.36 C 551.52 118.99 552.85 119.14 554 119.77 C 555.15 120.4 555.99 121.45 556.35 122.71 L 569.75 168.86 C 570.51 171.47 569 174.2 566.4 174.96 L 512.5 190.61 C 512.05 190.74 511.58 190.81 511.12 190.81 L 511.12 190.8 Z M 551.63 121.11 C 551.36 121.11 551.08 121.15 550.8 121.23 L 496.9 136.88 C 496.14 137.1 495.51 137.61 495.12 138.3 C 494.74 139 494.65 139.8 494.87 140.56 L 508.27 186.71 C 508.734 188.285 510.381 189.191 511.96 188.74 L 565.86 173.09 C 567.44 172.632 568.349 170.98 567.89 169.4 L 554.49 123.25 C 554.119 121.979 552.954 121.104 551.63 121.1 L 551.63 121.11 Z M 496.63 135.94 Z M 285.22 189.47 C 287.98 193.39 293.47 194.61 298.02 194.38 C 300.52 194.26 303.01 193.6 305.16 192.26 C 307.42 190.87 309.28 188.86 311.08 186.95 C 311.72 186.28 310.7 185.24 310.06 185.93 C 306.72 189.44 288.98 192.29 286.46 188.72 C 285.94 187.97 284.66 188.69 285.21 189.45 L 285.21 189.48 L 285.22 189.47 Z M 313.58 641.95 C 313.29 641.95 313.02 641.76 312.93 641.47 L 309.45 630.03 C 309.296 629.53 309.741 629.05 310.252 629.167 C 310.489 629.221 310.679 629.398 310.75 629.63 L 314.23 641.07 C 314.366 641.507 314.038 641.951 313.58 641.95 L 313.58 641.95 Z M 312.04 646.83 C 311.75 646.83 311.48 646.64 311.39 646.35 L 307.91 634.91 C 307.756 634.41 308.201 633.93 308.712 634.047 C 308.949 634.101 309.139 634.278 309.21 634.51 L 312.69 645.95 C 312.826 646.387 312.498 646.831 312.04 646.83 L 312.04 646.83 Z M 348.28 381.17 C 347.92 381.17 347.62 380.89 347.6 380.52 L 346.96 368.56 C 346.94 368.18 347.23 367.86 347.61 367.84 C 347.98 367.84 348.31 368.11 348.33 368.49 L 348.97 380.45 C 348.99 380.83 348.7 381.15 348.32 381.17 L 348.28 381.17 Z M 345.87 385.58 C 345.52 385.58 345.22 385.31 345.19 384.95 L 344.29 373.02 C 344.26 372.64 344.54 372.32 344.92 372.29 C 345.31 372.27 345.62 372.54 345.65 372.92 L 346.55 384.85 C 346.58 385.23 346.3 385.55 345.92 385.58 L 345.87 385.58 Z M 421.91 390.78 C 421.85 390.78 421.78 390.78 421.72 390.75 L 410.22 387.38 C 409.857 387.274 409.65 386.892 409.76 386.53 C 409.87 386.17 410.25 385.96 410.61 386.07 L 422.11 389.44 C 422.47 389.55 422.68 389.92 422.57 390.29 C 422.486 390.579 422.221 390.779 421.92 390.78 L 421.91 390.78 Z M 418.6 386.77 C 418.54 386.77 418.48 386.77 418.42 386.75 L 406.86 383.64 C 406.359 383.475 406.224 382.83 406.617 382.479 C 406.781 382.332 407.005 382.273 407.22 382.32 L 418.78 385.43 C 419.14 385.53 419.36 385.9 419.26 386.27 C 419.18 386.57 418.9 386.78 418.6 386.78 L 418.6 386.77 Z M 224.51 739.25 L 224.48 739.25 C 224.104 739.234 223.813 738.916 223.83 738.54 L 224.41 726.58 C 224.43 726.2 224.75 725.92 225.12 725.93 C 225.5 725.95 225.79 726.27 225.77 726.64 L 225.19 738.6 C 225.17 738.97 224.87 739.25 224.51 739.25 Z M 221.43 743.31 L 221.4 743.31 C 221.024 743.294 220.733 742.976 220.75 742.6 L 221.33 730.67 C 221.35 730.29 221.67 730.03 222.04 730.02 C 222.42 730.04 222.71 730.36 222.69 730.73 L 222.11 742.66 C 222.09 743.03 221.79 743.31 221.43 743.31 Z" class="cls-27"/>
      <path d="M282.87 284.57c-9.98 0-18.58-3.98-24.49-7.74-13.29-8.43-22.8-22.55-26.09-38.74l-1.34-6.59c-.06-.32.02-.65.22-.9s.51-.4.83-.41c.31 0 7.65-.26 7.93-8.15.3-8.64-6-19.69-6.07-19.8-.3-.52-.12-1.19.4-1.49.52-.3 1.19-.12 1.49.4.27.47 6.69 11.7 6.36 20.96-.27 7.75-6.13 9.64-8.79 10.11l1.1 5.43c3.17 15.61 12.33 29.22 25.12 37.33 6.98 4.45 17.89 9.22 30.27 6.7 18.05-3.68 28.79-15.93 31.92-36.43a71 71 0 0 0 .69-13.83c-.03-.6.43-1.11 1.03-1.14.61-.03 1.11.43 1.14 1.03.24 4.77 0 9.57-.71 14.27-3.24 21.2-14.87 34.42-33.64 38.24-2.53.51-4.99.74-7.38.74Z" class="cls-27"/>
      <path d="M253.19 140.11c2.61-3.8 7-6.16 11.53-6.79 5.4-.78 10.86.99 15.39 3.83 3.16 1.97 6.07-3.02 2.93-4.99-5.81-3.66-12.72-5.49-19.54-4.47-6.18.93-11.76 4.38-15.3 9.52-.9 1.28-.23 3.22 1.05 3.98 1.45.84 3.08.26 3.98-1.05l-.03-.03Z" class="cls-7"/>
      <path fill="#f99" d="M254.82 138.17c.38-.38.78-.75 1.19-1.1.12-.09.2-.17.32-.26.52-.44-.35.26-.03 0 .23-.15.44-.32.67-.46.93-.64 1.89-1.19 2.9-1.65.12-.06.23-.12.38-.17.35-.17 0 .03-.15.06.23 0 .52-.2.75-.29.52-.17 1.02-.35 1.54-.49.55-.15 1.1-.29 1.68-.38.26-.06.52-.09.81-.15.41-.06-.58.06-.17 0 .17 0 .35-.03.49-.06.78-.09 1.48-.26 2.06-.84.49-.49.87-1.34.84-2.06-.06-1.45-1.28-3.05-2.9-2.9-5.43.55-10.57 2.73-14.46 6.59-1.07 1.07-1.16 3.05 0 4.09s2.96 1.13 4.09 0l-.03.09Z"/>
      <path d="M291.49 143.03c-.41 0-.8-.23-.99-.62-.24-.51-6.11-12.51-21.94-13.11-.6-.02-1.07-.53-1.05-1.13s.54-1.07 1.13-1.05c17.19.66 23.56 13.8 23.82 14.36.26.54.02 1.19-.52 1.45-.15.07-.31.1-.46.1ZM214.31 177.9c-.6 0-1.09-.49-1.09-1.09 0-24.72 24.72-30.44 29.22-31.27 1.13-3.41 7.02-18.45 23.02-18.45.6 0 1.09.49 1.09 1.09s-.49 1.09-1.09 1.09c-6.8 0-12.41 2.91-16.67 8.66-3.24 4.36-4.44 8.81-4.46 8.85-.11.42-.47.74-.91.8-.07 0-7.17 1.01-14.14 5.14-9.22 5.46-13.89 13.57-13.89 24.09 0 .6-.49 1.09-1.09 1.09Z" class="cls-27"/>
      <path d="M294.48 139.94c1.83.49 3.69 1.02 5.46 1.65.23.09.46.17.7.26.12.06.23.09.35.15-.41-.17-.46-.2-.17-.09.38.17.78.35 1.16.55.87.44 1.71.93 2.5 1.51.58.41 1.57.46 2.24.29s1.39-.7 1.74-1.34c.78-1.48.29-3.02-1.05-3.98-3.37-2.38-7.4-3.54-11.35-4.62-1.45-.41-3.22.49-3.57 2.03s.46 3.14 2.03 3.57h-.03Z" class="cls-7"/>
      <path d="M298.98 136.3c-.11 0-.23-.02-.35-.06-4.26-1.43-9.03-1.98-14.18-1.63a1.087 1.087 0 1 1-.15-2.17c5.44-.37 10.5.22 15.02 1.74.57.19.88.81.69 1.38-.15.46-.58.74-1.03.74ZM322.09 161.41c-.52 0-.98-.37-1.07-.9-.03-.15-2.9-15.53-18.17-22.51-.55-.25-.79-.9-.54-1.44.25-.55.9-.79 1.44-.54 16.33 7.47 19.29 23.44 19.41 24.12a1.094 1.094 0 0 1-1.07 1.28Z" class="cls-27"/>
      <path d="M219.74 424.39c-1.5 0-2.77-1.15-2.89-2.67-3.03-37.8-3.03-38.15-3.03-38.29 0-1.6 1.3-2.9 2.9-2.9s2.84 1.24 2.9 2.79c.08 1.27 2.2 27.79 3.01 37.95.13 1.6-1.06 3-2.66 3.13h-.24Zm-.11-40.97Z" class="cls-4" style="fill: rgb(232, 236, 109);"/>
      <path d="M225.23 434.08c-1.5 0-2.77-1.15-2.89-2.67-3.03-37.8-3.03-38.15-3.03-38.29 0-1.6 1.3-2.9 2.9-2.9s2.84 1.24 2.9 2.79c.08 1.27 2.2 27.79 3.01 37.95.13 1.6-1.06 3-2.66 3.13h-.24Zm-.11-40.97Z" class="cls-4" style="fill: rgb(255, 238, 140);"/>
      <path d="M220.03 457.94c-.56 0-1.04-.44-1.08-1.01l-5.84-77.61c-.04-.6.4-1.12 1-1.17.6-.04 1.12.4 1.17 1l5.84 77.61c.04.6-.4 1.12-1 1.17h-.08Z" class="cls-27" style="fill: rgb(0, 0, 0);"/>
      <path d="M562.23 562.89H412.27c-4.92 0-8.93-4-8.93-8.93v-107.6c0-4.92 4-8.93 8.93-8.93h149.96c4.92 0 8.93 4 8.93 8.93v107.6c0 4.92-4 8.93-8.93 8.93ZM412.27 439.38c-3.85 0-6.98 3.13-6.98 6.98v107.6c0 3.85 3.13 6.98 6.98 6.98h149.96c3.85 0 6.98-3.13 6.98-6.98v-107.6c0-3.85-3.13-6.98-6.98-6.98H412.27Z" class="cls-27"/>
      <path d="M269.13 542.85c-.1 0-.2 0-.3-.02-30.68-3.18-54.23-13.62-55.21-14.06-.88-.39-1.5-1.19-1.67-2.14l-3.48-19.48c-.18-1.01.18-2.03.95-2.7l11.01-9.56-7.72-7.41c-.56-.54-.89-1.29-.89-2.07l-.17-18.52c0-.78.3-1.53.85-2.08l15.68-15.68c1.13-1.13 2.97-1.13 4.11 0s1.13 2.97 0 4.11l-14.82 14.82.15 16.08 9.14 8.76c.59.56.91 1.35.89 2.17-.02.82-.38 1.59-1 2.12l-12.17 10.56 2.92 16.31c5.47 2.26 26.45 10.34 52.04 12.99a2.901 2.901 0 0 1-.29 5.79Z" class="cls-19" style="fill: rgb(255, 248, 170);"/>
      <ellipse cx="238.67" cy="863.64" class="cls-26" rx="7.29" ry="3.63" transform="rotate(-10 238.7 863.633)"/>
      <circle cx="245.7" cy="858.18" r="1.22" class="cls-26"/>
      <circle cx="253.02" cy="861.64" r="1.89" class="cls-26"/>
      <circle cx="224.1" cy="864.48" r="4.96" class="cls-26"/>
      <path d="M365.91 846.03c-3.05 0-5.14-.54-5.32-.59a1.935 1.935 0 0 1-1.37-2.36 1.93 1.93 0 0 1 2.36-1.37c.12.03 8.12 2.02 15.34-2.74.89-.59 2.09-.34 2.67.55.59.89.34 2.09-.55 2.67-4.7 3.1-9.57 3.83-13.14 3.83Z" class="cls-26"/>
      <path d="M418.57 886.97c-.54 0-1.01-.41-1.08-.96-.07-.6.35-1.14.95-1.21a86.95 86.95 0 0 0 25.14-6.97c2.19-5.16.95-11.1-3.14-14.9-9.23-8.58-28.86-24.14-56.66-31.98-.58-.16-.92-.76-.75-1.34.16-.58.76-.92 1.34-.75 28.24 7.96 48.18 23.77 57.56 32.48 4.87 4.53 6.27 11.67 3.47 17.77-.11.24-.3.43-.54.54a89.335 89.335 0 0 1-26.16 7.32h-.13ZM400.57 886.42h-.13c-16.93-1.97-27.8-5.72-42.85-10.9l-3.23-1.11c-1.64-.59-3.07-1.5-4.28-2.7-2.45-2.45-3.62-5.81-3.2-9.22l-.69-27.44c-.02-.6.46-1.1 1.06-1.12.62.02 1.1.46 1.12 1.06l.7 27.52v.17c-.36 2.76.57 5.49 2.56 7.48.97.97 2.14 1.71 3.46 2.18l3.21 1.11c15.47 5.33 25.69 8.86 42.39 10.8.6.07 1.02.61.96 1.21-.06.55-.54.96-1.08.96ZM412.41 887.32h-.05l-5.84-.32a.972.972 0 0 1-.92-1.02c.03-.54.49-.97 1.02-.92l5.84.32c.54.03.95.49.92 1.02-.03.52-.46.92-.97.92ZM280.89 211.65c2.45 0 4.44 1.99 4.44 4.44v5.34c0 2.45-1.99 4.44-4.44 4.44s-4.44-1.99-4.44-4.44v-5.34c0-2.45 1.99-4.44 4.44-4.44Z" class="cls-27"/>
      <circle cx="284.87" cy="217.93" r="1.77" class="cls-5"/>
      <path d="M308.09 206.78c2.45 0 4.44 1.99 4.44 4.44v5.34c0 2.45-1.99 4.44-4.44 4.44s-4.44-1.99-4.44-4.44v-5.34c0-2.45 1.99-4.44 4.44-4.44Z" class="cls-27"/>
      <circle cx="312.04" cy="213.02" r="1.77" class="cls-5"/>
      <path d="M266.6 311.42c1.57 2.24 3.75 4.04 6.24 5.11.35.15.78.12.99-.26.17-.32.12-.84-.26-.99-2.29-.99-4.3-2.55-5.75-4.59-.23-.32-.64-.46-.99-.26-.32.17-.49.67-.26.99h.03ZM299.62 316.35c1.71-1.13 3.34-2.41 4.82-3.86.29-.26.26-.75 0-1.02s-.75-.26-1.02 0c-1.42 1.36-2.9 2.55-4.53 3.63-.32.2-.46.64-.26.99.2.32.67.46.99.26ZM282.72 320.01c2.03.58 4.21.58 6.21 0 .9-.26.52-1.65-.38-1.39-1.8.52-3.66.52-5.46 0-.9-.26-1.28 1.13-.38 1.39Z" class="cls-27"/>
      <path d="M327.86 519.73c-1.54 0-2.83-1.21-2.9-2.77a2.905 2.905 0 0 1 2.77-3.03l10.41-.47 9.69-3.32 13.85-7.8c1.4-.79 3.17-.29 3.95 1.11.79 1.4.29 3.17-1.11 3.95l-14.08 7.93c-.15.09-.32.16-.48.22l-10.34 3.54c-.26.09-.53.14-.81.15l-10.83.49h-.13Z" class="cls-19" style="fill: rgb(252, 255, 175);"/>
      <path d="M285.74 544.19c-23.68 0-47.37-4.54-70-13.64l-3.89-1.57c-.36-.14-.61-.46-.67-.85l-3.46-22.65c-.06-.37.08-.74.36-.98l11.28-9.85-8.48-7.74c-.23-.21-.35-.5-.35-.8V465.9c0-.29.11-.57.32-.77l18.76-18.76a1.08 1.08 0 0 1 1.54 0c.43.42.42 1.11 0 1.54l-18.44 18.44v19.28l9.02 8.24c.23.21.36.51.35.82 0 .31-.14.6-.37.81l-11.74 10.26 3.27 21.44 3.31 1.34c45.91 18.44 96.22 17.94 141.72-1.41l9.65-18.08-1.35-7.06-17 9.8c-.06.03-.12.06-.18.08l-10.02 3.54c-.1.04-.2.06-.3.06l-11.96.64a1.088 1.088 0 1 1-.12-2.17l11.81-.63 9.77-3.46 18.23-10.52c.3-.18.68-.19 1-.05.32.15.55.44.62.79l1.71 8.94c.05.25 0 .5-.11.72L360 528.49c-.12.22-.3.39-.53.49-23.7 10.14-48.71 15.21-73.73 15.21Z" class="cls-27" style="fill: rgb(0, 0, 0);"/>
      <path d="M79.1 240.7c-.3 0-.6-.14-.79-.41l-12.25-17.22a.977.977 0 0 1 .23-1.36.977.977 0 0 1 1.36.23l12.25 17.22a.977.977 0 0 1-.79 1.54Z" class="cls-5"/>
      <path d="m29.92 232.12 56.41-37.98-28.22-42.19L.97 192.06s22.47 21.66 28.95 40.1v-.03Z" class="cls-36"/>
      <path d="m37.493 166.658 4.857-3.189 27.493 41.87-4.856 3.19zM44.614 161.493l4.857-3.19 27.493 41.87-4.856 3.19z" class="cls-5"/>
      <path d="M29.92 233.12a.98.98 0 0 1-.92-.65C22.68 214.46.52 192.97.3 192.76c-.21-.2-.32-.49-.29-.78s.17-.55.41-.72l57.14-40.1c.21-.15.48-.21.74-.16.26.05.48.2.63.42l28.22 42.19a.97.97 0 0 1-.27 1.35l-56.25 37.87c-.14.15-.33.26-.55.29-.06 0-.11.01-.16.01ZM2.49 192.18c4.11 4.09 21.64 22.12 27.91 38.45l54.59-36.75-27.13-40.55-55.37 38.85Z" class="cls-27"/>
      <path d="M296.77 245.29c-.45 0-.86-.32-.95-.78a.97.97 0 0 1 .76-1.15 5.327 5.327 0 0 0 3.75-2.95c.73-1.53.69-3.27-.09-4.76l-2.18-4.15a.964.964 0 0 1 .41-1.31.964.964 0 0 1 1.31.41l2.18 4.15c1.07 2.04 1.11 4.41.12 6.5a7.226 7.226 0 0 1-5.11 4.02c-.07.01-.13.02-.2.02Z" class="cls-1"/>
      <path d="M296.62 256.6c-.84 0-1.7-.05-2.59-.14l-1.38-.18a.971.971 0 0 1-.84-1.09c.07-.53.56-.91 1.09-.84l1.36.17c5.41.57 9.65-.77 13.32-4.22.39-.37 1.01-.35 1.38.04s.35 1.01-.04 1.38c-3.51 3.29-7.46 4.87-12.29 4.87Z" class="cls-27"/>
      <path d="m313.29 196.18 3.11 14.81c.23 1.16 1.6 1.83 2.67 1.51 1.19-.32 1.77-1.51 1.51-2.67l-3.11-14.81c-.23-1.16-1.6-1.83-2.67-1.51-1.19.32-1.77 1.51-1.51 2.67Z" class="cls-5"/>
      <path d="M323.02 226.65c-.54 0-1.01-.41-1.08-.96-.23-1.96-.57-4.02-1.06-6.48l-6.1-30.02c-.12-.59.26-1.16.85-1.28.59-.12 1.16.26 1.28.85l6.1 30.02c.5 2.52.85 4.63 1.09 6.65.07.6-.36 1.14-.95 1.21h-.13Z" class="cls-27"/>
      <path d="M294.39 295.77c-.96-.17-1.89-.44-2.79-.75-.09-.03-.17-.06-.29-.12-.29-.12-.26-.09.15.06-.23-.03-.52-.23-.73-.35-.38-.2-.73-.41-1.1-.61-.15-.09-.29-.2-.44-.29-.17-.12-.75-.67-.15-.09-.29-.29-.64-.52-.96-.81s-.58-.58-.87-.9c-.09-.09-.23-.38-.35-.41.26.35.32.41.12.15-.06-.09-.15-.2-.2-.29-.38-.58-.61-1.28-.9-1.92l-.9-1.95c-.29-.61-1.1-1.16-1.74-1.34-.7-.2-1.63-.12-2.24.29-1.42.93-1.71 2.5-1.05 3.98l.93 2.06c.35.78.67 1.54 1.16 2.24 2.64 3.54 6.36 5.81 10.68 6.65 1.48.29 3.19-.41 3.57-2.03.32-1.42-.44-3.25-2.03-3.57h.12Z" class="cls-1"/>
      <rect width="44.63" height="38.79" x="494.06" y="489.45" class="cls-11" rx="1.71" ry="1.71"/>
      <path d="M494.06 520.34h44.63v5.4a2.5 2.5 0 0 1-2.5 2.5h-39.6a2.5 2.5 0 0 1-2.5-2.5v-5.4h-.03Z" class="cls-2"/>
      <path d="M523.58 493.01h-24.01c-1.07 0-1.93-.86-1.93-1.93s.86-1.93 1.93-1.93h24.01c1.07 0 1.93.86 1.93 1.93s-.86 1.93-1.93 1.93Z" class="cls-6"/>
      <path d="M514.61 493.01h-6.18c-1.07 0-1.93-.86-1.93-1.93s.86-1.93 1.93-1.93h6.18c1.07 0 1.93.86 1.93 1.93s-.86 1.93-1.93 1.93Z" class="cls-5"/>
      <path d="M494.2 512.61a.97.97 0 0 1-.97-.97v-9.75c0-.54.44-.97.97-.97s.97.44.97.97v9.75c0 .54-.44.97-.97.97Z" class="cls-27"/>
      <path d="M537.09 529.24h-41.17c-1.48 0-2.69-1.21-2.69-2.69v-9.78c0-.54.44-.97.97-.97s.97.44.97.97v9.78c0 .41.33.74.74.74h41.17c.41 0 .74-.33.74-.74v-35.33c0-.41-.33-.74-.74-.74h-41.17c-.41 0-.74.33-.74.74v5.92c0 .54-.44.97-.97.97s-.97-.44-.97-.97v-5.92c0-1.48 1.2-2.69 2.69-2.69h41.17c1.48 0 2.69 1.21 2.69 2.69v35.33c0 1.48-1.2 2.69-2.69 2.69Z" class="cls-27"/>
      <rect width="44.63" height="38.79" x="146.46" y="274.2" class="cls-11" rx="1.71" ry="1.71" transform="rotate(-27 168.783 293.6)"/>
      <path d="m154 313.87 39.9-19.99 2.42 4.83c.62 1.25.11 2.74-1.11 3.35L159.8 319.8c-1.25.62-2.74.11-3.35-1.11l-2.42-4.83H154Z" class="cls-2"/>
      <path d="M145.82 287.16c-.71 0-1.39-.39-1.73-1.06-.48-.95-.09-2.11.86-2.59l21.46-10.77c.95-.48 2.11-.09 2.59.86s.09 2.11-.86 2.59l-21.46 10.77c-.28.14-.57.21-.86.21Z" class="cls-6"/>
      <path d="M153.75 283.18c-.71 0-1.39-.39-1.73-1.07-.48-.95-.09-2.11.86-2.59l5.52-2.76c.95-.48 2.11-.09 2.59.86s.09 2.11-.86 2.59l-5.52 2.76c-.28.14-.57.2-.86.2Z" class="cls-5"/>
      <path d="M150.24 306.99c-.36 0-.7-.2-.87-.54l-4.38-8.71a.98.98 0 0 1 .43-1.31.98.98 0 0 1 1.31.43l4.38 8.71a.98.98 0 0 1-.43 1.31c-.14.07-.29.1-.44.1Z" class="cls-27"/>
      <path d="M 158.47 321.32 C 158.19 321.32 157.91 321.28 157.64 321.19 C 156.946 320.963 156.372 320.465 156.05 319.81 L 151.67 311.07 C 151.43 310.589 151.622 310.005 152.1 309.76 C 152.581 309.52 153.165 309.712 153.41 310.19 L 157.79 318.93 C 157.89 319.12 158.05 319.26 158.25 319.33 C 158.44 319.39 158.63 319.37 158.8 319.29 L 195.63 300.85 C 195.82 300.75 195.96 300.59 196.03 300.39 C 196.092 300.209 196.078 300.01 195.99 299.84 L 180.16 268.21 C 180.064 268.023 179.899 267.879 179.7 267.81 C 179.519 267.748 179.32 267.762 179.15 267.85 L 142.32 286.29 C 142.13 286.39 141.99 286.55 141.92 286.75 C 141.858 286.931 141.872 287.13 141.96 287.3 L 144.61 292.6 C 144.85 293.08 144.66 293.66 144.17 293.91 C 143.687 294.152 143.099 293.954 142.86 293.47 L 140.22 288.19 C 139.9 287.57 139.84 286.84 140.06 286.16 C 140.29 285.46 140.78 284.9 141.44 284.57 L 155.908 277.322 L 178.25 266.13 C 178.87 265.81 179.6 265.75 180.29 265.97 C 180.99 266.2 181.55 266.69 181.88 267.35 L 197.7 298.97 C 198.02 299.59 198.08 300.32 197.86 301 C 197.63 301.7 197.14 302.26 196.48 302.59 L 159.67 321.03 C 159.3 321.22 158.89 321.32 158.47 321.32 Z" class="cls-27"/>
      <rect width="76.59" height="50.37" x="28.47" y="425.46" fill="#9671c3" rx="4.67" ry="4.67"/>
      <path d="m62.18 426.3-19.54 49.65 16.29.12 16.32-49.71h-5.17s-7.4-.26-7.87-.06h-.03ZM79.65 426.3l-16.78 49.65h4.44l16.72-49.71h-1.42s-2.47-.12-2.93.09l-.03-.03Z" class="cls-3"/>
      <path d="M37.67 432.49h20.85v12.86H37.67z" class="cls-5"/>
      <path d="M79.45 453.44H37.64c-.54 0-.97-.44-.97-.97s.44-.97.97-.97h41.81c.54 0 .97.44.97.97s-.44.97-.97.97ZM63.6 459.24H37.64c-.54 0-.97-.44-.97-.97s.44-.97.97-.97H63.6c.54 0 .97.44.97.97s-.44.97-.97.97ZM63.6 465.08H37.64c-.54 0-.97-.44-.97-.97s.44-.97.97-.97H63.6c.54 0 .97.44.97.97s-.44.97-.97.97Z" class="cls-27"/>
      <path d="M100.39 476.81H33.14c-3.11 0-5.65-2.53-5.65-5.65v-41.03c0-3.11 2.53-5.65 5.65-5.65h67.25c3.11 0 5.65 2.53 5.65 5.65v41.03c0 3.11-2.53 5.65-5.65 5.65Zm-67.24-50.37c-2.04 0-3.7 1.66-3.7 3.7v41.03c0 2.04 1.66 3.7 3.7 3.7h67.24c2.04 0 3.7-1.66 3.7-3.7v-41.03c0-2.04-1.66-3.7-3.7-3.7H33.14Z" class="cls-27"/>
      <path d="M58.52 446.32H37.67a.97.97 0 0 1-.97-.97v-12.86c0-.54.44-.97.97-.97h20.85c.54 0 .97.44.97.97v12.86c0 .54-.44.97-.97.97Zm-19.87-1.95h18.9v-10.92h-18.9v10.92Z" class="cls-27"/>
      <rect width="38.79" height="44.63" x="79.52" y="458.86" class="cls-11" rx="1.71" ry="1.71" transform="rotate(-79 98.91 481.165)"/>
      <path d="m74.86 488.32 43.84 8.32-1.01 5.31a2.503 2.503 0 0 1-2.92 1.99l-38.91-7.39a2.503 2.503 0 0 1-1.99-2.92l1.01-5.31h-.03Z" class="cls-2"/>
      <path d="M109.39 466.99c-.12 0-.24-.01-.36-.03l-23.6-4.47a1.933 1.933 0 1 1 .72-3.8l23.6 4.47a1.933 1.933 0 0 1-.36 3.83Z" class="cls-6"/>
      <path d="M100.56 465.31c-.12 0-.24-.01-.36-.03l-6.07-1.13c-1.05-.2-1.74-1.2-1.54-2.25a1.93 1.93 0 0 1 2.25-1.54l6.07 1.13c1.05.2 1.74 1.2 1.54 2.25-.17.93-.98 1.58-1.9 1.58Z" class="cls-5"/>
      <path d="M76.69 480.76c-.06 0-.12 0-.18-.02a.977.977 0 0 1-.78-1.14l1.8-9.58a.977.977 0 0 1 1.92.36l-1.8 9.58c-.09.47-.5.79-.96.79Z" class="cls-27"/>
      <path d="M116.03 505.15c-.16 0-.33-.01-.5-.05l-40.45-7.67a2.66 2.66 0 0 1-1.72-1.13c-.4-.59-.55-1.31-.42-2.01l1.83-9.61c.1-.53.61-.88 1.14-.77.53.1.87.61.77 1.14l-1.83 9.61c-.04.19 0 .39.12.56.11.16.28.27.47.31l40.45 7.67c.4.08.79-.19.87-.59l6.59-34.73a.71.71 0 0 0-.12-.56.76.76 0 0 0-.47-.31l-40.45-7.67a.742.742 0 0 0-.87.59l-1.1 5.81a.97.97 0 0 1-1.14.77.97.97 0 0 1-.77-1.14l1.1-5.81c.27-1.45 1.68-2.41 3.14-2.14l40.45 7.67c.7.13 1.31.53 1.72 1.13.4.59.55 1.31.42 2.01l-6.59 34.73a2.677 2.677 0 0 1-2.64 2.18Z" class="cls-27"/>
      <rect width="44.63" height="38.79" x="638.57" y="71.94" class="cls-11" rx="1.71" ry="1.71" transform="rotate(-16 660.878 91.316)"/>
      <path d="m642.74 108.69 42.79-12.67 1.53 5.18c.4 1.34-.38 2.72-1.68 3.1l-37.97 11.25c-1.34.4-2.72-.38-3.1-1.68l-1.53-5.18h-.03Z" class="cls-2"/>
      <path d="M639.75 80.96c-.83 0-1.6-.54-1.85-1.38-.3-1.02.28-2.1 1.3-2.4l23.02-6.82c1.02-.3 2.1.28 2.4 1.3s-.28 2.1-1.3 2.4l-23.02 6.82c-.18.05-.37.08-.55.08Z" class="cls-6"/>
      <path d="M648.23 78.43c-.83 0-1.6-.54-1.85-1.39-.3-1.02.28-2.1 1.31-2.4l5.92-1.74c1.02-.3 2.1.28 2.4 1.31.3 1.02-.28 2.1-1.31 2.4l-5.92 1.74c-.18.05-.37.08-.55.08Z" class="cls-5"/>
      <path d="M640.42 101.22a.96.96 0 0 1-.93-.7l-2.76-9.32a.97.97 0 0 1 .66-1.21.97.97 0 0 1 1.21.66l2.76 9.32a.97.97 0 0 1-.94 1.25Z" class="cls-27"/>
      <path d="M646.35 116.8c-.45 0-.89-.11-1.29-.33-.64-.35-1.11-.92-1.31-1.6l-2.79-9.37a.973.973 0 0 1 .65-1.21.973.973 0 0 1 1.21.65l2.79 9.38c.07.25.26.38.36.44.18.1.39.12.58.07l39.48-11.7c.25-.07.38-.26.44-.36.1-.18.12-.39.07-.58L676.5 68.31c-.11-.39-.56-.62-.95-.5l-39.48 11.7c-.38.11-.62.55-.5.95l1.68 5.66a.973.973 0 0 1-.65 1.21.97.97 0 0 1-1.21-.65l-1.68-5.66c-.41-1.42.42-2.95 1.82-3.36l39.48-11.7c1.42-.41 2.95.42 3.36 1.82l10.04 33.88c.2.69.12 1.41-.22 2.05-.35.64-.92 1.11-1.6 1.31l-39.48 11.7c-.25.07-.5.11-.76.11Z" class="cls-27"/>
      <rect width="44.63" height="38.79" x="584.91" y="77.73" class="cls-11" rx="1.71" ry="1.71" transform="rotate(-16 607.222 97.127)"/>
      <path d="m589.09 114.52 42.79-12.67 1.53 5.18c.4 1.34-.38 2.72-1.68 3.1l-37.97 11.25c-1.34.4-2.72-.38-3.1-1.68l-1.53-5.18h-.03Z" class="cls-2"/>
      <path d="M586.07 86.76c-.83 0-1.6-.54-1.85-1.38-.3-1.02.28-2.1 1.31-2.4l23.02-6.79c1.02-.3 2.1.28 2.4 1.31.3 1.02-.28 2.1-1.31 2.4l-23.02 6.79c-.18.05-.37.08-.55.08Z" class="cls-6"/>
      <path d="M594.57 84.27c-.83 0-1.6-.54-1.85-1.38-.31-1.02.27-2.1 1.3-2.4l5.92-1.77c1.02-.31 2.1.27 2.4 1.3.31 1.02-.27 2.1-1.3 2.4l-5.92 1.77c-.18.06-.37.08-.55.08Z" class="cls-5"/>
      <path d="M586.76 107.06a.96.96 0 0 1-.93-.7l-2.76-9.35a.97.97 0 0 1 .66-1.21.97.97 0 0 1 1.21.66l2.76 9.35a.97.97 0 0 1-.94 1.25Z" class="cls-27"/>
      <path d="M592.69 122.6c-1.17 0-2.28-.77-2.62-1.93l-2.79-9.37a.975.975 0 0 1 .66-1.21.967.967 0 0 1 1.21.66l2.79 9.38c.11.38.55.62.95.5l39.48-11.7c.25-.07.38-.26.44-.36.1-.18.12-.39.07-.58l-10.04-33.88a.758.758 0 0 0-.36-.44.786.786 0 0 0-.58-.07l-39.48 11.7c-.25.07-.38.26-.44.36-.1.18-.12.39-.07.58l1.68 5.66a.973.973 0 0 1-.65 1.21.977.977 0 0 1-1.21-.65l-1.68-5.66c-.2-.69-.12-1.42.22-2.05.35-.64.92-1.11 1.6-1.31l39.48-11.7c.69-.2 1.41-.12 2.05.22.64.35 1.11.92 1.31 1.6l10.04 33.88c.2.69.12 1.41-.22 2.05-.35.64-.92 1.11-1.6 1.31l-39.48 11.7c-.25.07-.49.1-.74.1Z" class="cls-27"/>
      <rect width="217.15" height="161.69" x="475.37" y="25.17" fill="#e0f3fc" opacity=".51" rx="13.59" ry="13.59" style="isolation:isolate" transform="rotate(-16 583.935 106.034)"/>
      <path d="M511.96 212.03c-6.28 0-12.1-4.1-13.97-10.43L459.81 72.62c-2.28-7.7 2.13-15.81 9.83-18.09L651.79.61c3.73-1.1 7.67-.69 11.08 1.17 3.42 1.86 5.91 4.93 7.01 8.66l38.18 128.98c2.28 7.7-2.13 15.82-9.83 18.09l-182.16 53.92c-1.37.41-2.76.6-4.13.6ZM470.19 56.39c-6.67 1.97-10.49 9.01-8.52 15.68l38.18 128.98c1.97 6.67 9.01 10.49 15.68 8.52l182.16-53.92c6.67-1.97 10.49-9.01 8.52-15.68L668.02 10.99c-.96-3.23-3.11-5.9-6.08-7.5a12.504 12.504 0 0 0-9.6-1.01L470.18 56.4Z" class="cls-27"/>
      <path d="M 462.98 81.45 C 462.84 81.45 462.78 81.42 462.73 81.39 C 462.073 81.029 462.053 80.092 462.694 79.703 C 462.768 79.659 462.847 79.624 462.93 79.6 C 463.02 79.57 463.12 79.56 463.21 79.56 C 468.09 78.68 601.09 38.86 671.09 17.82 C 671.603 17.669 672.143 17.959 672.3 18.47 C 672.451 18.983 672.161 19.523 671.65 19.68 C 671.13 19.84 462.98 81.45 462.98 81.45 Z" class="cls-27"/>
      <circle cx="475.5" cy="65.7" r="2.73" class="cls-27"/>
      <circle cx="484.1" cy="63.23" r="2.73" class="cls-27"/>
      <circle cx="492.72" cy="60.24" r="2.73" class="cls-27"/>
    </g>
  </g>
</svg>